G04 #@! TF.FileFunction,Copper,L1,Top,Signal*
%FSLAX46Y46*%
G04 Gerber Fmt 4.6, Leading zero omitted, Abs format (unit mm)*
G04 Created by KiCad (PCBNEW 4.0.7) date 01/29/18 09:34:28*
%MOMM*%
%LPD*%
G01*
G04 APERTURE LIST*
%ADD10C,0.100000*%
%ADD11R,1.850000X1.850000*%
%ADD12C,1.850000*%
%ADD13R,1.600000X1.600000*%
%ADD14O,1.600000X1.600000*%
%ADD15C,1.600000*%
%ADD16R,1.397000X1.397000*%
%ADD17C,1.397000*%
%ADD18R,1.730000X2.030000*%
%ADD19O,1.730000X2.030000*%
%ADD20R,1.727200X1.727200*%
%ADD21O,1.727200X1.727200*%
%ADD22R,1.800000X1.800000*%
%ADD23O,1.800000X1.800000*%
%ADD24O,2.999740X1.501140*%
%ADD25C,1.500000*%
%ADD26C,1.520000*%
%ADD27R,1.520000X1.520000*%
%ADD28C,0.250000*%
%ADD29C,0.254000*%
G04 APERTURE END LIST*
D10*
D11*
X102870000Y-110236000D03*
D12*
X102870000Y-112736000D03*
X102870000Y-115236000D03*
X102870000Y-117736000D03*
D13*
X123190000Y-97028000D03*
D14*
X130810000Y-114808000D03*
X123190000Y-99568000D03*
X130810000Y-112268000D03*
X123190000Y-102108000D03*
X130810000Y-109728000D03*
X123190000Y-104648000D03*
X130810000Y-107188000D03*
X123190000Y-107188000D03*
X130810000Y-104648000D03*
X123190000Y-109728000D03*
X130810000Y-102108000D03*
X123190000Y-112268000D03*
X130810000Y-99568000D03*
X123190000Y-114808000D03*
X130810000Y-97028000D03*
D15*
X136398000Y-80518000D03*
D14*
X128778000Y-80518000D03*
D13*
X141732000Y-88900000D03*
D15*
X139732000Y-88900000D03*
X104140000Y-105410000D03*
X99140000Y-105410000D03*
X109093000Y-93726000D03*
X109093000Y-91226000D03*
X122682000Y-92964000D03*
X122682000Y-90464000D03*
X133604000Y-96774000D03*
X133604000Y-94274000D03*
D16*
X145288000Y-93980000D03*
D17*
X145288000Y-86360000D03*
D18*
X144780000Y-82550000D03*
D19*
X142240000Y-82550000D03*
X139700000Y-82550000D03*
D20*
X117856000Y-82423000D03*
D21*
X117856000Y-84963000D03*
X115316000Y-82423000D03*
X115316000Y-84963000D03*
X112776000Y-82423000D03*
X112776000Y-84963000D03*
D18*
X99060000Y-81280000D03*
D19*
X101600000Y-81280000D03*
X104140000Y-81280000D03*
D15*
X119761000Y-90551000D03*
D14*
X112141000Y-90551000D03*
D15*
X136906000Y-106426000D03*
D14*
X136906000Y-98806000D03*
D15*
X133604000Y-106426000D03*
D14*
X133604000Y-98806000D03*
D15*
X125984000Y-86360000D03*
D14*
X125984000Y-93980000D03*
D15*
X105410000Y-86360000D03*
D14*
X97790000Y-86360000D03*
D22*
X149606000Y-98044000D03*
D23*
X152146000Y-98044000D03*
X154686000Y-98044000D03*
D24*
X140462000Y-116078000D03*
X140462000Y-113527840D03*
X140462000Y-108478320D03*
X140462000Y-105928200D03*
X140462000Y-103378000D03*
D13*
X112141000Y-93853000D03*
D14*
X119761000Y-116713000D03*
X112141000Y-96393000D03*
X119761000Y-114173000D03*
X112141000Y-98933000D03*
X119761000Y-111633000D03*
X112141000Y-101473000D03*
X119761000Y-109093000D03*
X112141000Y-104013000D03*
X119761000Y-106553000D03*
X112141000Y-106553000D03*
X119761000Y-104013000D03*
X112141000Y-109093000D03*
X119761000Y-101473000D03*
X112141000Y-111633000D03*
X119761000Y-98933000D03*
X112141000Y-114173000D03*
X119761000Y-96393000D03*
X112141000Y-116713000D03*
X119761000Y-93853000D03*
D13*
X128778000Y-83947000D03*
D14*
X136398000Y-91567000D03*
X128778000Y-86487000D03*
X136398000Y-89027000D03*
X128778000Y-89027000D03*
X136398000Y-86487000D03*
X128778000Y-91567000D03*
X136398000Y-83947000D03*
D13*
X103314500Y-96964500D03*
D14*
X95694500Y-89344500D03*
X103314500Y-94424500D03*
X95694500Y-91884500D03*
X103314500Y-91884500D03*
X95694500Y-94424500D03*
X103314500Y-89344500D03*
X95694500Y-96964500D03*
D25*
X108077000Y-100584000D03*
X108077000Y-105464000D03*
D15*
X106426000Y-120142000D03*
D14*
X114046000Y-120142000D03*
D15*
X104140000Y-100330000D03*
X99140000Y-100330000D03*
X154940000Y-101092000D03*
X152440000Y-101092000D03*
X148590000Y-108712000D03*
X148590000Y-106212000D03*
X148590000Y-103886000D03*
X148590000Y-101386000D03*
D26*
X108331000Y-113284000D03*
X108331000Y-110744000D03*
D27*
X108331000Y-115824000D03*
D28*
X106426000Y-120142000D02*
X106426000Y-118491000D01*
X104648000Y-110236000D02*
X102870000Y-110236000D01*
X105410000Y-110998000D02*
X104648000Y-110236000D01*
X105410000Y-117475000D02*
X105410000Y-110998000D01*
X106426000Y-118491000D02*
X105410000Y-117475000D01*
X130810000Y-104648000D02*
X130048000Y-104648000D01*
X130048000Y-104648000D02*
X128778000Y-103378000D01*
X121158000Y-95250000D02*
X119761000Y-93853000D01*
X127254000Y-95250000D02*
X121158000Y-95250000D01*
X128778000Y-96774000D02*
X127254000Y-95250000D01*
X128778000Y-103378000D02*
X128778000Y-96774000D01*
X95694500Y-96964500D02*
X95821500Y-96964500D01*
X95821500Y-96964500D02*
X97028000Y-95758000D01*
X119761000Y-81153000D02*
X119761000Y-90551000D01*
X119126000Y-80518000D02*
X119761000Y-81153000D01*
X112522000Y-80518000D02*
X119126000Y-80518000D01*
X110744000Y-82296000D02*
X112522000Y-80518000D01*
X110744000Y-92710000D02*
X110744000Y-82296000D01*
X110744000Y-94996000D02*
X110744000Y-92710000D01*
X109982000Y-95758000D02*
X110744000Y-94996000D01*
X97028000Y-95758000D02*
X109982000Y-95758000D01*
X119761000Y-98933000D02*
X121412000Y-100584000D01*
X127000000Y-109728000D02*
X130810000Y-109728000D01*
X125222000Y-107950000D02*
X127000000Y-109728000D01*
X125222000Y-104394000D02*
X125222000Y-107950000D01*
X124206000Y-103378000D02*
X125222000Y-104394000D01*
X121920000Y-103378000D02*
X124206000Y-103378000D01*
X121412000Y-102870000D02*
X121920000Y-103378000D01*
X121412000Y-100584000D02*
X121412000Y-102870000D01*
X119761000Y-96393000D02*
X121666000Y-98298000D01*
X126746000Y-107188000D02*
X130810000Y-107188000D01*
X125984000Y-106426000D02*
X126746000Y-107188000D01*
X125984000Y-102616000D02*
X125984000Y-106426000D01*
X124206000Y-100838000D02*
X125984000Y-102616000D01*
X122428000Y-100838000D02*
X124206000Y-100838000D01*
X121666000Y-100076000D02*
X122428000Y-100838000D01*
X121666000Y-98298000D02*
X121666000Y-100076000D01*
X115316000Y-82423000D02*
X115316000Y-82550000D01*
X115316000Y-82550000D02*
X116586000Y-83820000D01*
X116586000Y-83820000D02*
X116586000Y-94742000D01*
X116586000Y-94742000D02*
X118237000Y-96393000D01*
X118237000Y-96393000D02*
X119761000Y-96393000D01*
X128651000Y-86360000D02*
X128778000Y-86487000D01*
X119761000Y-109093000D02*
X120015000Y-109093000D01*
X120015000Y-109093000D02*
X123190000Y-112268000D01*
X119761000Y-104013000D02*
X119761000Y-104267000D01*
X119761000Y-104267000D02*
X121412000Y-105918000D01*
X121412000Y-105918000D02*
X121412000Y-107950000D01*
X121412000Y-107950000D02*
X121920000Y-108458000D01*
X121920000Y-108458000D02*
X124714000Y-108458000D01*
X124714000Y-108458000D02*
X125222000Y-108966000D01*
X125222000Y-108966000D02*
X125222000Y-114046000D01*
X125222000Y-114046000D02*
X125984000Y-114808000D01*
X125984000Y-114808000D02*
X130810000Y-114808000D01*
D29*
G36*
X157607000Y-121539000D02*
X114265152Y-121539000D01*
X114623264Y-121467767D01*
X115088811Y-121156698D01*
X115399880Y-120691151D01*
X115509113Y-120142000D01*
X115399880Y-119592849D01*
X115088811Y-119127302D01*
X114623264Y-118816233D01*
X114074113Y-118707000D01*
X114017887Y-118707000D01*
X113468736Y-118816233D01*
X113003189Y-119127302D01*
X112692120Y-119592849D01*
X112582887Y-120142000D01*
X112692120Y-120691151D01*
X113003189Y-121156698D01*
X113468736Y-121467767D01*
X113826848Y-121539000D01*
X106802754Y-121539000D01*
X107237800Y-121359243D01*
X107641824Y-120955923D01*
X107860750Y-120428691D01*
X107861248Y-119857813D01*
X107643243Y-119330200D01*
X107239923Y-118926176D01*
X107186000Y-118903785D01*
X107186000Y-118491000D01*
X107128148Y-118200161D01*
X106963401Y-117953599D01*
X106170000Y-117160198D01*
X106170000Y-116109750D01*
X106936000Y-116109750D01*
X106936000Y-116710310D01*
X107032673Y-116943699D01*
X107211302Y-117122327D01*
X107444691Y-117219000D01*
X108045250Y-117219000D01*
X108204000Y-117060250D01*
X108204000Y-115951000D01*
X108458000Y-115951000D01*
X108458000Y-117060250D01*
X108616750Y-117219000D01*
X109217309Y-117219000D01*
X109450698Y-117122327D01*
X109510986Y-117062039D01*
X110749096Y-117062039D01*
X110909959Y-117450423D01*
X111285866Y-117865389D01*
X111791959Y-118104914D01*
X112014000Y-117983629D01*
X112014000Y-116840000D01*
X112268000Y-116840000D01*
X112268000Y-117983629D01*
X112490041Y-118104914D01*
X112996134Y-117865389D01*
X113372041Y-117450423D01*
X113532904Y-117062039D01*
X113410915Y-116840000D01*
X112268000Y-116840000D01*
X112014000Y-116840000D01*
X110871085Y-116840000D01*
X110749096Y-117062039D01*
X109510986Y-117062039D01*
X109629327Y-116943699D01*
X109726000Y-116710310D01*
X109726000Y-116109750D01*
X109567250Y-115951000D01*
X108458000Y-115951000D01*
X108204000Y-115951000D01*
X107094750Y-115951000D01*
X106936000Y-116109750D01*
X106170000Y-116109750D01*
X106170000Y-111020265D01*
X106935758Y-111020265D01*
X107147687Y-111533172D01*
X107539764Y-111925934D01*
X107751738Y-112013954D01*
X107541828Y-112100687D01*
X107149066Y-112492764D01*
X106936242Y-113005300D01*
X106935758Y-113560265D01*
X107147687Y-114073172D01*
X107502894Y-114429000D01*
X107444691Y-114429000D01*
X107211302Y-114525673D01*
X107032673Y-114704301D01*
X106936000Y-114937690D01*
X106936000Y-115538250D01*
X107094750Y-115697000D01*
X108204000Y-115697000D01*
X108204000Y-115677000D01*
X108458000Y-115677000D01*
X108458000Y-115697000D01*
X109567250Y-115697000D01*
X109726000Y-115538250D01*
X109726000Y-114937690D01*
X109629327Y-114704301D01*
X109450698Y-114525673D01*
X109217309Y-114429000D01*
X109158552Y-114429000D01*
X109512934Y-114075236D01*
X109725758Y-113562700D01*
X109726242Y-113007735D01*
X109514313Y-112494828D01*
X109122236Y-112102066D01*
X108910262Y-112014046D01*
X109120172Y-111927313D01*
X109512934Y-111535236D01*
X109725758Y-111022700D01*
X109726242Y-110467735D01*
X109514313Y-109954828D01*
X109122236Y-109562066D01*
X108609700Y-109349242D01*
X108054735Y-109348758D01*
X107541828Y-109560687D01*
X107149066Y-109952764D01*
X106936242Y-110465300D01*
X106935758Y-111020265D01*
X106170000Y-111020265D01*
X106170000Y-110998000D01*
X106112148Y-110707161D01*
X105947401Y-110460599D01*
X105185401Y-109698599D01*
X104938839Y-109533852D01*
X104648000Y-109476000D01*
X104442440Y-109476000D01*
X104442440Y-109311000D01*
X104398162Y-109075683D01*
X104259090Y-108859559D01*
X104046890Y-108714569D01*
X103795000Y-108663560D01*
X101945000Y-108663560D01*
X101709683Y-108707838D01*
X101493559Y-108846910D01*
X101348569Y-109059110D01*
X101297560Y-109311000D01*
X101297560Y-111161000D01*
X101341838Y-111396317D01*
X101480910Y-111612441D01*
X101662874Y-111736771D01*
X101548268Y-111851177D01*
X101310272Y-112424336D01*
X101309730Y-113044942D01*
X101546725Y-113618514D01*
X101913826Y-113986256D01*
X101548268Y-114351177D01*
X101310272Y-114924336D01*
X101309730Y-115544942D01*
X101546725Y-116118514D01*
X101980574Y-116553121D01*
X101951349Y-116637744D01*
X102870000Y-117556395D01*
X103788651Y-116637744D01*
X103759235Y-116552566D01*
X104191732Y-116120823D01*
X104429728Y-115547664D01*
X104430270Y-114927058D01*
X104193275Y-114353486D01*
X103826174Y-113985744D01*
X104191732Y-113620823D01*
X104429728Y-113047664D01*
X104430270Y-112427058D01*
X104193275Y-111853486D01*
X104075246Y-111735251D01*
X104246441Y-111625090D01*
X104391431Y-111412890D01*
X104442440Y-111161000D01*
X104442440Y-111105242D01*
X104650000Y-111312802D01*
X104650000Y-117475000D01*
X104707852Y-117765839D01*
X104872599Y-118012401D01*
X105666000Y-118805802D01*
X105666000Y-118903354D01*
X105614200Y-118924757D01*
X105210176Y-119328077D01*
X104991250Y-119855309D01*
X104990752Y-120426187D01*
X105208757Y-120953800D01*
X105612077Y-121357824D01*
X106048397Y-121539000D01*
X94361000Y-121539000D01*
X94361000Y-118834256D01*
X101951349Y-118834256D01*
X102040821Y-119093332D01*
X102623368Y-119307325D01*
X103243461Y-119282097D01*
X103699179Y-119093332D01*
X103788651Y-118834256D01*
X102870000Y-117915605D01*
X101951349Y-118834256D01*
X94361000Y-118834256D01*
X94361000Y-117489368D01*
X101298675Y-117489368D01*
X101323903Y-118109461D01*
X101512668Y-118565179D01*
X101771744Y-118654651D01*
X102690395Y-117736000D01*
X103049605Y-117736000D01*
X103968256Y-118654651D01*
X104227332Y-118565179D01*
X104441325Y-117982632D01*
X104416097Y-117362539D01*
X104227332Y-116906821D01*
X103968256Y-116817349D01*
X103049605Y-117736000D01*
X102690395Y-117736000D01*
X101771744Y-116817349D01*
X101512668Y-116906821D01*
X101298675Y-117489368D01*
X94361000Y-117489368D01*
X94361000Y-106417745D01*
X98311861Y-106417745D01*
X98385995Y-106663864D01*
X98923223Y-106856965D01*
X99493454Y-106829778D01*
X99894005Y-106663864D01*
X99968139Y-106417745D01*
X99140000Y-105589605D01*
X98311861Y-106417745D01*
X94361000Y-106417745D01*
X94361000Y-105193223D01*
X97693035Y-105193223D01*
X97720222Y-105763454D01*
X97886136Y-106164005D01*
X98132255Y-106238139D01*
X98960395Y-105410000D01*
X99319605Y-105410000D01*
X100147745Y-106238139D01*
X100393864Y-106164005D01*
X100562735Y-105694187D01*
X102704752Y-105694187D01*
X102922757Y-106221800D01*
X103326077Y-106625824D01*
X103853309Y-106844750D01*
X104424187Y-106845248D01*
X104951800Y-106627243D01*
X105355824Y-106223923D01*
X105557478Y-105738285D01*
X106691760Y-105738285D01*
X106902169Y-106247515D01*
X107291436Y-106637461D01*
X107800298Y-106848759D01*
X108351285Y-106849240D01*
X108860515Y-106638831D01*
X109250461Y-106249564D01*
X109461759Y-105740702D01*
X109462240Y-105189715D01*
X109251831Y-104680485D01*
X108862564Y-104290539D01*
X108353702Y-104079241D01*
X107802715Y-104078760D01*
X107293485Y-104289169D01*
X106903539Y-104678436D01*
X106692241Y-105187298D01*
X106691760Y-105738285D01*
X105557478Y-105738285D01*
X105574750Y-105696691D01*
X105575248Y-105125813D01*
X105357243Y-104598200D01*
X104953923Y-104194176D01*
X104426691Y-103975250D01*
X103855813Y-103974752D01*
X103328200Y-104192757D01*
X102924176Y-104596077D01*
X102705250Y-105123309D01*
X102704752Y-105694187D01*
X100562735Y-105694187D01*
X100586965Y-105626777D01*
X100559778Y-105056546D01*
X100393864Y-104655995D01*
X100147745Y-104581861D01*
X99319605Y-105410000D01*
X98960395Y-105410000D01*
X98132255Y-104581861D01*
X97886136Y-104655995D01*
X97693035Y-105193223D01*
X94361000Y-105193223D01*
X94361000Y-104402255D01*
X98311861Y-104402255D01*
X99140000Y-105230395D01*
X99968139Y-104402255D01*
X99894005Y-104156136D01*
X99356777Y-103963035D01*
X98786546Y-103990222D01*
X98385995Y-104156136D01*
X98311861Y-104402255D01*
X94361000Y-104402255D01*
X94361000Y-101337745D01*
X98311861Y-101337745D01*
X98385995Y-101583864D01*
X98923223Y-101776965D01*
X99493454Y-101749778D01*
X99894005Y-101583864D01*
X99968139Y-101337745D01*
X99140000Y-100509605D01*
X98311861Y-101337745D01*
X94361000Y-101337745D01*
X94361000Y-100113223D01*
X97693035Y-100113223D01*
X97720222Y-100683454D01*
X97886136Y-101084005D01*
X98132255Y-101158139D01*
X98960395Y-100330000D01*
X99319605Y-100330000D01*
X100147745Y-101158139D01*
X100393864Y-101084005D01*
X100562735Y-100614187D01*
X102704752Y-100614187D01*
X102922757Y-101141800D01*
X103326077Y-101545824D01*
X103853309Y-101764750D01*
X104424187Y-101765248D01*
X104951800Y-101547243D01*
X105355824Y-101143923D01*
X105474431Y-100858285D01*
X106691760Y-100858285D01*
X106902169Y-101367515D01*
X107291436Y-101757461D01*
X107800298Y-101968759D01*
X108351285Y-101969240D01*
X108860515Y-101758831D01*
X109250461Y-101369564D01*
X109461759Y-100860702D01*
X109462240Y-100309715D01*
X109251831Y-99800485D01*
X108862564Y-99410539D01*
X108353702Y-99199241D01*
X107802715Y-99198760D01*
X107293485Y-99409169D01*
X106903539Y-99798436D01*
X106692241Y-100307298D01*
X106691760Y-100858285D01*
X105474431Y-100858285D01*
X105574750Y-100616691D01*
X105575248Y-100045813D01*
X105357243Y-99518200D01*
X104953923Y-99114176D01*
X104426691Y-98895250D01*
X103855813Y-98894752D01*
X103328200Y-99112757D01*
X102924176Y-99516077D01*
X102705250Y-100043309D01*
X102704752Y-100614187D01*
X100562735Y-100614187D01*
X100586965Y-100546777D01*
X100559778Y-99976546D01*
X100393864Y-99575995D01*
X100147745Y-99501861D01*
X99319605Y-100330000D01*
X98960395Y-100330000D01*
X98132255Y-99501861D01*
X97886136Y-99575995D01*
X97693035Y-100113223D01*
X94361000Y-100113223D01*
X94361000Y-99322255D01*
X98311861Y-99322255D01*
X99140000Y-100150395D01*
X99968139Y-99322255D01*
X99894005Y-99076136D01*
X99356777Y-98883035D01*
X98786546Y-98910222D01*
X98385995Y-99076136D01*
X98311861Y-99322255D01*
X94361000Y-99322255D01*
X94361000Y-97544152D01*
X94651689Y-97979198D01*
X95117236Y-98290267D01*
X95666387Y-98399500D01*
X95722613Y-98399500D01*
X96271764Y-98290267D01*
X96737311Y-97979198D01*
X97048380Y-97513651D01*
X97157613Y-96964500D01*
X97114259Y-96746543D01*
X97342802Y-96518000D01*
X101867060Y-96518000D01*
X101867060Y-97764500D01*
X101911338Y-97999817D01*
X102050410Y-98215941D01*
X102262610Y-98360931D01*
X102514500Y-98411940D01*
X104114500Y-98411940D01*
X104349817Y-98367662D01*
X104565941Y-98228590D01*
X104710931Y-98016390D01*
X104761940Y-97764500D01*
X104761940Y-96518000D01*
X109982000Y-96518000D01*
X110272839Y-96460148D01*
X110519401Y-96295401D01*
X110741474Y-96073328D01*
X110677887Y-96393000D01*
X110787120Y-96942151D01*
X111098189Y-97407698D01*
X111480275Y-97663000D01*
X111098189Y-97918302D01*
X110787120Y-98383849D01*
X110677887Y-98933000D01*
X110787120Y-99482151D01*
X111098189Y-99947698D01*
X111480275Y-100203000D01*
X111098189Y-100458302D01*
X110787120Y-100923849D01*
X110677887Y-101473000D01*
X110787120Y-102022151D01*
X111098189Y-102487698D01*
X111480275Y-102743000D01*
X111098189Y-102998302D01*
X110787120Y-103463849D01*
X110677887Y-104013000D01*
X110787120Y-104562151D01*
X111098189Y-105027698D01*
X111480275Y-105283000D01*
X111098189Y-105538302D01*
X110787120Y-106003849D01*
X110677887Y-106553000D01*
X110787120Y-107102151D01*
X111098189Y-107567698D01*
X111480275Y-107823000D01*
X111098189Y-108078302D01*
X110787120Y-108543849D01*
X110677887Y-109093000D01*
X110787120Y-109642151D01*
X111098189Y-110107698D01*
X111480275Y-110363000D01*
X111098189Y-110618302D01*
X110787120Y-111083849D01*
X110677887Y-111633000D01*
X110787120Y-112182151D01*
X111098189Y-112647698D01*
X111480275Y-112903000D01*
X111098189Y-113158302D01*
X110787120Y-113623849D01*
X110677887Y-114173000D01*
X110787120Y-114722151D01*
X111098189Y-115187698D01*
X111502703Y-115457986D01*
X111285866Y-115560611D01*
X110909959Y-115975577D01*
X110749096Y-116363961D01*
X110871085Y-116586000D01*
X112014000Y-116586000D01*
X112014000Y-116566000D01*
X112268000Y-116566000D01*
X112268000Y-116586000D01*
X113410915Y-116586000D01*
X113532904Y-116363961D01*
X113372041Y-115975577D01*
X112996134Y-115560611D01*
X112779297Y-115457986D01*
X113183811Y-115187698D01*
X113494880Y-114722151D01*
X113604113Y-114173000D01*
X113494880Y-113623849D01*
X113183811Y-113158302D01*
X112801725Y-112903000D01*
X113183811Y-112647698D01*
X113494880Y-112182151D01*
X113604113Y-111633000D01*
X113494880Y-111083849D01*
X113183811Y-110618302D01*
X112801725Y-110363000D01*
X113183811Y-110107698D01*
X113494880Y-109642151D01*
X113604113Y-109093000D01*
X113494880Y-108543849D01*
X113183811Y-108078302D01*
X112801725Y-107823000D01*
X113183811Y-107567698D01*
X113494880Y-107102151D01*
X113604113Y-106553000D01*
X113494880Y-106003849D01*
X113183811Y-105538302D01*
X112801725Y-105283000D01*
X113183811Y-105027698D01*
X113494880Y-104562151D01*
X113604113Y-104013000D01*
X113494880Y-103463849D01*
X113183811Y-102998302D01*
X112801725Y-102743000D01*
X113183811Y-102487698D01*
X113494880Y-102022151D01*
X113604113Y-101473000D01*
X113494880Y-100923849D01*
X113183811Y-100458302D01*
X112801725Y-100203000D01*
X113183811Y-99947698D01*
X113494880Y-99482151D01*
X113604113Y-98933000D01*
X113494880Y-98383849D01*
X113183811Y-97918302D01*
X112801725Y-97663000D01*
X113183811Y-97407698D01*
X113494880Y-96942151D01*
X113604113Y-96393000D01*
X113494880Y-95843849D01*
X113183811Y-95378302D01*
X113039535Y-95281899D01*
X113176317Y-95256162D01*
X113392441Y-95117090D01*
X113537431Y-94904890D01*
X113588440Y-94653000D01*
X113588440Y-93053000D01*
X113544162Y-92817683D01*
X113405090Y-92601559D01*
X113192890Y-92456569D01*
X112941000Y-92405560D01*
X111504000Y-92405560D01*
X111504000Y-91836853D01*
X111563736Y-91876767D01*
X112112887Y-91986000D01*
X112169113Y-91986000D01*
X112718264Y-91876767D01*
X113183811Y-91565698D01*
X113494880Y-91100151D01*
X113604113Y-90551000D01*
X113494880Y-90001849D01*
X113183811Y-89536302D01*
X112718264Y-89225233D01*
X112169113Y-89116000D01*
X112112887Y-89116000D01*
X111563736Y-89225233D01*
X111504000Y-89265147D01*
X111504000Y-85749657D01*
X111887510Y-86169821D01*
X112416973Y-86417968D01*
X112649000Y-86297469D01*
X112649000Y-85090000D01*
X112629000Y-85090000D01*
X112629000Y-84836000D01*
X112649000Y-84836000D01*
X112649000Y-84816000D01*
X112903000Y-84816000D01*
X112903000Y-84836000D01*
X112923000Y-84836000D01*
X112923000Y-85090000D01*
X112903000Y-85090000D01*
X112903000Y-86297469D01*
X113135027Y-86417968D01*
X113664490Y-86169821D01*
X114046008Y-85751839D01*
X114226971Y-86022670D01*
X114713152Y-86347526D01*
X115286641Y-86461600D01*
X115345359Y-86461600D01*
X115826000Y-86365995D01*
X115826000Y-94742000D01*
X115883852Y-95032839D01*
X116048599Y-95279401D01*
X117699599Y-96930401D01*
X117946161Y-97095148D01*
X118237000Y-97153000D01*
X118548005Y-97153000D01*
X118718189Y-97407698D01*
X119100275Y-97663000D01*
X118718189Y-97918302D01*
X118407120Y-98383849D01*
X118297887Y-98933000D01*
X118407120Y-99482151D01*
X118718189Y-99947698D01*
X119100275Y-100203000D01*
X118718189Y-100458302D01*
X118407120Y-100923849D01*
X118297887Y-101473000D01*
X118407120Y-102022151D01*
X118718189Y-102487698D01*
X119100275Y-102743000D01*
X118718189Y-102998302D01*
X118407120Y-103463849D01*
X118297887Y-104013000D01*
X118407120Y-104562151D01*
X118718189Y-105027698D01*
X119100275Y-105283000D01*
X118718189Y-105538302D01*
X118407120Y-106003849D01*
X118297887Y-106553000D01*
X118407120Y-107102151D01*
X118718189Y-107567698D01*
X119100275Y-107823000D01*
X118718189Y-108078302D01*
X118407120Y-108543849D01*
X118297887Y-109093000D01*
X118407120Y-109642151D01*
X118718189Y-110107698D01*
X119100275Y-110363000D01*
X118718189Y-110618302D01*
X118407120Y-111083849D01*
X118297887Y-111633000D01*
X118407120Y-112182151D01*
X118718189Y-112647698D01*
X119100275Y-112903000D01*
X118718189Y-113158302D01*
X118407120Y-113623849D01*
X118297887Y-114173000D01*
X118407120Y-114722151D01*
X118718189Y-115187698D01*
X119100275Y-115443000D01*
X118718189Y-115698302D01*
X118407120Y-116163849D01*
X118297887Y-116713000D01*
X118407120Y-117262151D01*
X118718189Y-117727698D01*
X119183736Y-118038767D01*
X119732887Y-118148000D01*
X119789113Y-118148000D01*
X120338264Y-118038767D01*
X120803811Y-117727698D01*
X121114880Y-117262151D01*
X121224113Y-116713000D01*
X121114880Y-116163849D01*
X120803811Y-115698302D01*
X120421725Y-115443000D01*
X120803811Y-115187698D01*
X121114880Y-114722151D01*
X121224113Y-114173000D01*
X121114880Y-113623849D01*
X120803811Y-113158302D01*
X120421725Y-112903000D01*
X120803811Y-112647698D01*
X121114880Y-112182151D01*
X121224113Y-111633000D01*
X121160526Y-111313328D01*
X121791312Y-111944114D01*
X121726887Y-112268000D01*
X121836120Y-112817151D01*
X122147189Y-113282698D01*
X122529275Y-113538000D01*
X122147189Y-113793302D01*
X121836120Y-114258849D01*
X121726887Y-114808000D01*
X121836120Y-115357151D01*
X122147189Y-115822698D01*
X122612736Y-116133767D01*
X123161887Y-116243000D01*
X123218113Y-116243000D01*
X123767264Y-116133767D01*
X124232811Y-115822698D01*
X124543880Y-115357151D01*
X124653113Y-114808000D01*
X124576154Y-114421101D01*
X124684599Y-114583401D01*
X125446599Y-115345401D01*
X125693161Y-115510148D01*
X125984000Y-115568000D01*
X129597005Y-115568000D01*
X129767189Y-115822698D01*
X130232736Y-116133767D01*
X130781887Y-116243000D01*
X130838113Y-116243000D01*
X131387264Y-116133767D01*
X131470725Y-116078000D01*
X138285305Y-116078000D01*
X138390775Y-116608235D01*
X138691129Y-117057746D01*
X139140640Y-117358100D01*
X139670875Y-117463570D01*
X141253125Y-117463570D01*
X141783360Y-117358100D01*
X142232871Y-117057746D01*
X142533225Y-116608235D01*
X142638695Y-116078000D01*
X142533225Y-115547765D01*
X142232871Y-115098254D01*
X141783360Y-114797900D01*
X141750598Y-114791383D01*
X141858867Y-114759339D01*
X142280848Y-114417784D01*
X142540000Y-113940743D01*
X142554183Y-113869115D01*
X142431529Y-113654840D01*
X140589000Y-113654840D01*
X140589000Y-113674840D01*
X140335000Y-113674840D01*
X140335000Y-113654840D01*
X138492471Y-113654840D01*
X138369817Y-113869115D01*
X138384000Y-113940743D01*
X138643152Y-114417784D01*
X139065133Y-114759339D01*
X139173402Y-114791383D01*
X139140640Y-114797900D01*
X138691129Y-115098254D01*
X138390775Y-115547765D01*
X138285305Y-116078000D01*
X131470725Y-116078000D01*
X131852811Y-115822698D01*
X132163880Y-115357151D01*
X132273113Y-114808000D01*
X132163880Y-114258849D01*
X131852811Y-113793302D01*
X131470725Y-113538000D01*
X131852811Y-113282698D01*
X131917045Y-113186565D01*
X138369817Y-113186565D01*
X138492471Y-113400840D01*
X140335000Y-113400840D01*
X140335000Y-112142270D01*
X140589000Y-112142270D01*
X140589000Y-113400840D01*
X142431529Y-113400840D01*
X142554183Y-113186565D01*
X142540000Y-113114937D01*
X142280848Y-112637896D01*
X141858867Y-112296341D01*
X141338300Y-112142270D01*
X140589000Y-112142270D01*
X140335000Y-112142270D01*
X139585700Y-112142270D01*
X139065133Y-112296341D01*
X138643152Y-112637896D01*
X138384000Y-113114937D01*
X138369817Y-113186565D01*
X131917045Y-113186565D01*
X132163880Y-112817151D01*
X132273113Y-112268000D01*
X132163880Y-111718849D01*
X131852811Y-111253302D01*
X131470725Y-110998000D01*
X131852811Y-110742698D01*
X132163880Y-110277151D01*
X132273113Y-109728000D01*
X132163880Y-109178849D01*
X131852811Y-108713302D01*
X131501136Y-108478320D01*
X138285305Y-108478320D01*
X138390775Y-109008555D01*
X138691129Y-109458066D01*
X139140640Y-109758420D01*
X139670875Y-109863890D01*
X141253125Y-109863890D01*
X141783360Y-109758420D01*
X142232871Y-109458066D01*
X142533225Y-109008555D01*
X142535685Y-108996187D01*
X147154752Y-108996187D01*
X147372757Y-109523800D01*
X147776077Y-109927824D01*
X148303309Y-110146750D01*
X148874187Y-110147248D01*
X149401800Y-109929243D01*
X149805824Y-109525923D01*
X150024750Y-108998691D01*
X150025248Y-108427813D01*
X149807243Y-107900200D01*
X149403923Y-107496176D01*
X149337456Y-107468577D01*
X149344005Y-107465864D01*
X149418139Y-107219745D01*
X148590000Y-106391605D01*
X147761861Y-107219745D01*
X147835995Y-107465864D01*
X147842483Y-107468196D01*
X147778200Y-107494757D01*
X147374176Y-107898077D01*
X147155250Y-108425309D01*
X147154752Y-108996187D01*
X142535685Y-108996187D01*
X142638695Y-108478320D01*
X142533225Y-107948085D01*
X142232871Y-107498574D01*
X141783360Y-107198220D01*
X141750679Y-107191719D01*
X141858867Y-107159699D01*
X142280848Y-106818144D01*
X142540000Y-106341103D01*
X142554183Y-106269475D01*
X142431529Y-106055200D01*
X140589000Y-106055200D01*
X140589000Y-106075200D01*
X140335000Y-106075200D01*
X140335000Y-106055200D01*
X138492471Y-106055200D01*
X138369817Y-106269475D01*
X138384000Y-106341103D01*
X138643152Y-106818144D01*
X139065133Y-107159699D01*
X139173321Y-107191719D01*
X139140640Y-107198220D01*
X138691129Y-107498574D01*
X138390775Y-107948085D01*
X138285305Y-108478320D01*
X131501136Y-108478320D01*
X131470725Y-108458000D01*
X131852811Y-108202698D01*
X132163880Y-107737151D01*
X132224231Y-107433745D01*
X132775861Y-107433745D01*
X132849995Y-107679864D01*
X133387223Y-107872965D01*
X133957454Y-107845778D01*
X134358005Y-107679864D01*
X134432139Y-107433745D01*
X133604000Y-106605605D01*
X132775861Y-107433745D01*
X132224231Y-107433745D01*
X132273113Y-107188000D01*
X132198894Y-106814874D01*
X132350136Y-107180005D01*
X132596255Y-107254139D01*
X133424395Y-106426000D01*
X133783605Y-106426000D01*
X134611745Y-107254139D01*
X134857864Y-107180005D01*
X135026735Y-106710187D01*
X135470752Y-106710187D01*
X135688757Y-107237800D01*
X136092077Y-107641824D01*
X136619309Y-107860750D01*
X137190187Y-107861248D01*
X137717800Y-107643243D01*
X138121824Y-107239923D01*
X138340750Y-106712691D01*
X138341248Y-106141813D01*
X138280679Y-105995223D01*
X147143035Y-105995223D01*
X147170222Y-106565454D01*
X147336136Y-106966005D01*
X147582255Y-107040139D01*
X148410395Y-106212000D01*
X148769605Y-106212000D01*
X149597745Y-107040139D01*
X149843864Y-106966005D01*
X150036965Y-106428777D01*
X150009778Y-105858546D01*
X149843864Y-105457995D01*
X149597745Y-105383861D01*
X148769605Y-106212000D01*
X148410395Y-106212000D01*
X147582255Y-105383861D01*
X147336136Y-105457995D01*
X147143035Y-105995223D01*
X138280679Y-105995223D01*
X138123243Y-105614200D01*
X137719923Y-105210176D01*
X137192691Y-104991250D01*
X136621813Y-104990752D01*
X136094200Y-105208757D01*
X135690176Y-105612077D01*
X135471250Y-106139309D01*
X135470752Y-106710187D01*
X135026735Y-106710187D01*
X135050965Y-106642777D01*
X135023778Y-106072546D01*
X134857864Y-105671995D01*
X134611745Y-105597861D01*
X133783605Y-106426000D01*
X133424395Y-106426000D01*
X132596255Y-105597861D01*
X132350136Y-105671995D01*
X132157035Y-106209223D01*
X132181818Y-106729029D01*
X132163880Y-106638849D01*
X131852811Y-106173302D01*
X131470725Y-105918000D01*
X131852811Y-105662698D01*
X132016142Y-105418255D01*
X132775861Y-105418255D01*
X133604000Y-106246395D01*
X134432139Y-105418255D01*
X134358005Y-105172136D01*
X133820777Y-104979035D01*
X133250546Y-105006222D01*
X132849995Y-105172136D01*
X132775861Y-105418255D01*
X132016142Y-105418255D01*
X132163880Y-105197151D01*
X132273113Y-104648000D01*
X132163880Y-104098849D01*
X131852811Y-103633302D01*
X131470725Y-103378000D01*
X138285305Y-103378000D01*
X138390775Y-103908235D01*
X138691129Y-104357746D01*
X139140640Y-104658100D01*
X139173483Y-104664633D01*
X139065133Y-104696701D01*
X138643152Y-105038256D01*
X138384000Y-105515297D01*
X138369817Y-105586925D01*
X138492471Y-105801200D01*
X140335000Y-105801200D01*
X140335000Y-105781200D01*
X140589000Y-105781200D01*
X140589000Y-105801200D01*
X142431529Y-105801200D01*
X142554183Y-105586925D01*
X142540000Y-105515297D01*
X142280848Y-105038256D01*
X141858867Y-104696701D01*
X141750517Y-104664633D01*
X141783360Y-104658100D01*
X142232871Y-104357746D01*
X142358194Y-104170187D01*
X147154752Y-104170187D01*
X147372757Y-104697800D01*
X147776077Y-105101824D01*
X147790865Y-105107964D01*
X147761861Y-105204255D01*
X148590000Y-106032395D01*
X149418139Y-105204255D01*
X149389272Y-105108419D01*
X149401800Y-105103243D01*
X149805824Y-104699923D01*
X150024750Y-104172691D01*
X150025248Y-103601813D01*
X149807243Y-103074200D01*
X149403923Y-102670176D01*
X149337456Y-102642577D01*
X149344005Y-102639864D01*
X149418139Y-102393745D01*
X148590000Y-101565605D01*
X147761861Y-102393745D01*
X147835995Y-102639864D01*
X147842483Y-102642196D01*
X147778200Y-102668757D01*
X147374176Y-103072077D01*
X147155250Y-103599309D01*
X147154752Y-104170187D01*
X142358194Y-104170187D01*
X142533225Y-103908235D01*
X142638695Y-103378000D01*
X142533225Y-102847765D01*
X142232871Y-102398254D01*
X141783360Y-102097900D01*
X141253125Y-101992430D01*
X139670875Y-101992430D01*
X139140640Y-102097900D01*
X138691129Y-102398254D01*
X138390775Y-102847765D01*
X138285305Y-103378000D01*
X131470725Y-103378000D01*
X131852811Y-103122698D01*
X132163880Y-102657151D01*
X132273113Y-102108000D01*
X132163880Y-101558849D01*
X131903540Y-101169223D01*
X147143035Y-101169223D01*
X147170222Y-101739454D01*
X147336136Y-102140005D01*
X147582255Y-102214139D01*
X148410395Y-101386000D01*
X148769605Y-101386000D01*
X149597745Y-102214139D01*
X149843864Y-102140005D01*
X149858335Y-102099745D01*
X151611861Y-102099745D01*
X151685995Y-102345864D01*
X152223223Y-102538965D01*
X152793454Y-102511778D01*
X153194005Y-102345864D01*
X153268139Y-102099745D01*
X152440000Y-101271605D01*
X151611861Y-102099745D01*
X149858335Y-102099745D01*
X150036965Y-101602777D01*
X150009778Y-101032546D01*
X149944613Y-100875223D01*
X150993035Y-100875223D01*
X151020222Y-101445454D01*
X151186136Y-101846005D01*
X151432255Y-101920139D01*
X152260395Y-101092000D01*
X152619605Y-101092000D01*
X153447745Y-101920139D01*
X153693864Y-101846005D01*
X153696196Y-101839517D01*
X153722757Y-101903800D01*
X154126077Y-102307824D01*
X154653309Y-102526750D01*
X155224187Y-102527248D01*
X155751800Y-102309243D01*
X156155824Y-101905923D01*
X156374750Y-101378691D01*
X156375248Y-100807813D01*
X156157243Y-100280200D01*
X155753923Y-99876176D01*
X155226691Y-99657250D01*
X154655813Y-99656752D01*
X154128200Y-99874757D01*
X153724176Y-100278077D01*
X153696577Y-100344544D01*
X153693864Y-100337995D01*
X153447745Y-100263861D01*
X152619605Y-101092000D01*
X152260395Y-101092000D01*
X151432255Y-100263861D01*
X151186136Y-100337995D01*
X150993035Y-100875223D01*
X149944613Y-100875223D01*
X149843864Y-100631995D01*
X149597745Y-100557861D01*
X148769605Y-101386000D01*
X148410395Y-101386000D01*
X147582255Y-100557861D01*
X147336136Y-100631995D01*
X147143035Y-101169223D01*
X131903540Y-101169223D01*
X131852811Y-101093302D01*
X131470725Y-100838000D01*
X131852811Y-100582698D01*
X131989415Y-100378255D01*
X147761861Y-100378255D01*
X148590000Y-101206395D01*
X149418139Y-100378255D01*
X149344005Y-100132136D01*
X149210795Y-100084255D01*
X151611861Y-100084255D01*
X152440000Y-100912395D01*
X153268139Y-100084255D01*
X153194005Y-99838136D01*
X152656777Y-99645035D01*
X152086546Y-99672222D01*
X151685995Y-99838136D01*
X151611861Y-100084255D01*
X149210795Y-100084255D01*
X148806777Y-99939035D01*
X148236546Y-99966222D01*
X147835995Y-100132136D01*
X147761861Y-100378255D01*
X131989415Y-100378255D01*
X132163880Y-100117151D01*
X132273113Y-99568000D01*
X132163880Y-99018849D01*
X131852811Y-98553302D01*
X131470725Y-98298000D01*
X131852811Y-98042698D01*
X132163880Y-97577151D01*
X132235146Y-97218873D01*
X132386757Y-97585800D01*
X132579091Y-97778470D01*
X132278233Y-98228736D01*
X132169000Y-98777887D01*
X132169000Y-98834113D01*
X132278233Y-99383264D01*
X132589302Y-99848811D01*
X133054849Y-100159880D01*
X133604000Y-100269113D01*
X134153151Y-100159880D01*
X134618698Y-99848811D01*
X134929767Y-99383264D01*
X135039000Y-98834113D01*
X135039000Y-98777887D01*
X135471000Y-98777887D01*
X135471000Y-98834113D01*
X135580233Y-99383264D01*
X135891302Y-99848811D01*
X136356849Y-100159880D01*
X136906000Y-100269113D01*
X137455151Y-100159880D01*
X137920698Y-99848811D01*
X138231767Y-99383264D01*
X138341000Y-98834113D01*
X138341000Y-98777887D01*
X138231767Y-98228736D01*
X137920698Y-97763189D01*
X137455151Y-97452120D01*
X136906000Y-97342887D01*
X136356849Y-97452120D01*
X135891302Y-97763189D01*
X135580233Y-98228736D01*
X135471000Y-98777887D01*
X135039000Y-98777887D01*
X134929767Y-98228736D01*
X134628923Y-97778492D01*
X134819824Y-97587923D01*
X135004157Y-97144000D01*
X148058560Y-97144000D01*
X148058560Y-98944000D01*
X148102838Y-99179317D01*
X148241910Y-99395441D01*
X148454110Y-99540431D01*
X148706000Y-99591440D01*
X150506000Y-99591440D01*
X150741317Y-99547162D01*
X150957441Y-99408090D01*
X151102431Y-99195890D01*
X151112766Y-99144854D01*
X151238424Y-99281966D01*
X151781258Y-99535046D01*
X152019000Y-99414997D01*
X152019000Y-98171000D01*
X151999000Y-98171000D01*
X151999000Y-97917000D01*
X152019000Y-97917000D01*
X152019000Y-96673003D01*
X152273000Y-96673003D01*
X152273000Y-97917000D01*
X152293000Y-97917000D01*
X152293000Y-98171000D01*
X152273000Y-98171000D01*
X152273000Y-99414997D01*
X152510742Y-99535046D01*
X153053576Y-99281966D01*
X153411499Y-98891418D01*
X153570519Y-99129409D01*
X154068509Y-99462155D01*
X154655928Y-99579000D01*
X154716072Y-99579000D01*
X155303491Y-99462155D01*
X155801481Y-99129409D01*
X156134227Y-98631419D01*
X156251072Y-98044000D01*
X156134227Y-97456581D01*
X155801481Y-96958591D01*
X155303491Y-96625845D01*
X154716072Y-96509000D01*
X154655928Y-96509000D01*
X154068509Y-96625845D01*
X153570519Y-96958591D01*
X153411499Y-97196582D01*
X153053576Y-96806034D01*
X152510742Y-96552954D01*
X152273000Y-96673003D01*
X152019000Y-96673003D01*
X151781258Y-96552954D01*
X151238424Y-96806034D01*
X151115156Y-96940538D01*
X151109162Y-96908683D01*
X150970090Y-96692559D01*
X150757890Y-96547569D01*
X150506000Y-96496560D01*
X148706000Y-96496560D01*
X148470683Y-96540838D01*
X148254559Y-96679910D01*
X148109569Y-96892110D01*
X148058560Y-97144000D01*
X135004157Y-97144000D01*
X135038750Y-97060691D01*
X135039248Y-96489813D01*
X134821243Y-95962200D01*
X134417923Y-95558176D01*
X134336069Y-95524187D01*
X134415800Y-95491243D01*
X134819824Y-95087923D01*
X135038750Y-94560691D01*
X135039248Y-93989813D01*
X134821243Y-93462200D01*
X134640858Y-93281500D01*
X143942060Y-93281500D01*
X143942060Y-94678500D01*
X143986338Y-94913817D01*
X144125410Y-95129941D01*
X144337610Y-95274931D01*
X144589500Y-95325940D01*
X145986500Y-95325940D01*
X146221817Y-95281662D01*
X146437941Y-95142590D01*
X146582931Y-94930390D01*
X146633940Y-94678500D01*
X146633940Y-93281500D01*
X146589662Y-93046183D01*
X146450590Y-92830059D01*
X146238390Y-92685069D01*
X145986500Y-92634060D01*
X144589500Y-92634060D01*
X144354183Y-92678338D01*
X144138059Y-92817410D01*
X143993069Y-93029610D01*
X143942060Y-93281500D01*
X134640858Y-93281500D01*
X134417923Y-93058176D01*
X133890691Y-92839250D01*
X133319813Y-92838752D01*
X132792200Y-93056757D01*
X132388176Y-93460077D01*
X132169250Y-93987309D01*
X132168752Y-94558187D01*
X132386757Y-95085800D01*
X132790077Y-95489824D01*
X132871931Y-95523813D01*
X132792200Y-95556757D01*
X132388176Y-95960077D01*
X132169250Y-96487309D01*
X132169234Y-96505765D01*
X132163880Y-96478849D01*
X131852811Y-96013302D01*
X131387264Y-95702233D01*
X130838113Y-95593000D01*
X130781887Y-95593000D01*
X130232736Y-95702233D01*
X129767189Y-96013302D01*
X129466694Y-96463024D01*
X129315401Y-96236599D01*
X127791401Y-94712599D01*
X127544839Y-94547852D01*
X127320515Y-94503231D01*
X127419000Y-94008113D01*
X127419000Y-93951887D01*
X127309767Y-93402736D01*
X126998698Y-92937189D01*
X126533151Y-92626120D01*
X125984000Y-92516887D01*
X125434849Y-92626120D01*
X124969302Y-92937189D01*
X124658233Y-93402736D01*
X124549000Y-93951887D01*
X124549000Y-94008113D01*
X124644853Y-94490000D01*
X121472802Y-94490000D01*
X121159688Y-94176886D01*
X121200493Y-93971745D01*
X121853861Y-93971745D01*
X121927995Y-94217864D01*
X122465223Y-94410965D01*
X123035454Y-94383778D01*
X123436005Y-94217864D01*
X123510139Y-93971745D01*
X122682000Y-93143605D01*
X121853861Y-93971745D01*
X121200493Y-93971745D01*
X121224113Y-93853000D01*
X121114880Y-93303849D01*
X120803811Y-92838302D01*
X120667502Y-92747223D01*
X121235035Y-92747223D01*
X121262222Y-93317454D01*
X121428136Y-93718005D01*
X121674255Y-93792139D01*
X122502395Y-92964000D01*
X122861605Y-92964000D01*
X123689745Y-93792139D01*
X123935864Y-93718005D01*
X124128965Y-93180777D01*
X124101778Y-92610546D01*
X123935864Y-92209995D01*
X123689745Y-92135861D01*
X122861605Y-92964000D01*
X122502395Y-92964000D01*
X121674255Y-92135861D01*
X121428136Y-92209995D01*
X121235035Y-92747223D01*
X120667502Y-92747223D01*
X120338264Y-92527233D01*
X119789113Y-92418000D01*
X119732887Y-92418000D01*
X119183736Y-92527233D01*
X118718189Y-92838302D01*
X118407120Y-93303849D01*
X118297887Y-93853000D01*
X118407120Y-94402151D01*
X118718189Y-94867698D01*
X119100275Y-95123000D01*
X118718189Y-95378302D01*
X118549526Y-95630724D01*
X117346000Y-94427198D01*
X117346000Y-86365995D01*
X117826641Y-86461600D01*
X117885359Y-86461600D01*
X118458848Y-86347526D01*
X118945029Y-86022670D01*
X119001000Y-85938904D01*
X119001000Y-89312354D01*
X118949200Y-89333757D01*
X118545176Y-89737077D01*
X118326250Y-90264309D01*
X118325752Y-90835187D01*
X118543757Y-91362800D01*
X118947077Y-91766824D01*
X119474309Y-91985750D01*
X120045187Y-91986248D01*
X120572800Y-91768243D01*
X120976824Y-91364923D01*
X121195750Y-90837691D01*
X121195828Y-90748187D01*
X121246752Y-90748187D01*
X121464757Y-91275800D01*
X121868077Y-91679824D01*
X121934544Y-91707423D01*
X121927995Y-91710136D01*
X121853861Y-91956255D01*
X122682000Y-92784395D01*
X123510139Y-91956255D01*
X123436005Y-91710136D01*
X123429517Y-91707804D01*
X123493800Y-91681243D01*
X123608242Y-91567000D01*
X127314887Y-91567000D01*
X127424120Y-92116151D01*
X127735189Y-92581698D01*
X128200736Y-92892767D01*
X128749887Y-93002000D01*
X128806113Y-93002000D01*
X129355264Y-92892767D01*
X129820811Y-92581698D01*
X130131880Y-92116151D01*
X130241113Y-91567000D01*
X130131880Y-91017849D01*
X129820811Y-90552302D01*
X129416297Y-90282014D01*
X129633134Y-90179389D01*
X130009041Y-89764423D01*
X130169904Y-89376039D01*
X130047915Y-89154000D01*
X128905000Y-89154000D01*
X128905000Y-89174000D01*
X128651000Y-89174000D01*
X128651000Y-89154000D01*
X127508085Y-89154000D01*
X127386096Y-89376039D01*
X127546959Y-89764423D01*
X127922866Y-90179389D01*
X128139703Y-90282014D01*
X127735189Y-90552302D01*
X127424120Y-91017849D01*
X127314887Y-91567000D01*
X123608242Y-91567000D01*
X123897824Y-91277923D01*
X124116750Y-90750691D01*
X124117248Y-90179813D01*
X123899243Y-89652200D01*
X123495923Y-89248176D01*
X122968691Y-89029250D01*
X122397813Y-89028752D01*
X121870200Y-89246757D01*
X121466176Y-89650077D01*
X121247250Y-90177309D01*
X121246752Y-90748187D01*
X121195828Y-90748187D01*
X121196248Y-90266813D01*
X120978243Y-89739200D01*
X120574923Y-89335176D01*
X120521000Y-89312785D01*
X120521000Y-86644187D01*
X124548752Y-86644187D01*
X124766757Y-87171800D01*
X125170077Y-87575824D01*
X125697309Y-87794750D01*
X126268187Y-87795248D01*
X126795800Y-87577243D01*
X127199824Y-87173923D01*
X127370003Y-86764087D01*
X127424120Y-87036151D01*
X127735189Y-87501698D01*
X128139703Y-87771986D01*
X127922866Y-87874611D01*
X127546959Y-88289577D01*
X127386096Y-88677961D01*
X127508085Y-88900000D01*
X128651000Y-88900000D01*
X128651000Y-88880000D01*
X128905000Y-88880000D01*
X128905000Y-88900000D01*
X130047915Y-88900000D01*
X130169904Y-88677961D01*
X130009041Y-88289577D01*
X129633134Y-87874611D01*
X129416297Y-87771986D01*
X129820811Y-87501698D01*
X130131880Y-87036151D01*
X130241113Y-86487000D01*
X130131880Y-85937849D01*
X129820811Y-85472302D01*
X129676535Y-85375899D01*
X129813317Y-85350162D01*
X130029441Y-85211090D01*
X130174431Y-84998890D01*
X130225440Y-84747000D01*
X130225440Y-83947000D01*
X134934887Y-83947000D01*
X135044120Y-84496151D01*
X135355189Y-84961698D01*
X135737275Y-85217000D01*
X135355189Y-85472302D01*
X135044120Y-85937849D01*
X134934887Y-86487000D01*
X135044120Y-87036151D01*
X135355189Y-87501698D01*
X135737275Y-87757000D01*
X135355189Y-88012302D01*
X135044120Y-88477849D01*
X134934887Y-89027000D01*
X135044120Y-89576151D01*
X135355189Y-90041698D01*
X135737275Y-90297000D01*
X135355189Y-90552302D01*
X135044120Y-91017849D01*
X134934887Y-91567000D01*
X135044120Y-92116151D01*
X135355189Y-92581698D01*
X135820736Y-92892767D01*
X136369887Y-93002000D01*
X136426113Y-93002000D01*
X136975264Y-92892767D01*
X137440811Y-92581698D01*
X137751880Y-92116151D01*
X137861113Y-91567000D01*
X137751880Y-91017849D01*
X137440811Y-90552302D01*
X137058725Y-90297000D01*
X137440811Y-90041698D01*
X137751880Y-89576151D01*
X137861113Y-89027000D01*
X137792732Y-88683223D01*
X138285035Y-88683223D01*
X138312222Y-89253454D01*
X138478136Y-89654005D01*
X138724255Y-89728139D01*
X139552395Y-88900000D01*
X138724255Y-88071861D01*
X138478136Y-88145995D01*
X138285035Y-88683223D01*
X137792732Y-88683223D01*
X137751880Y-88477849D01*
X137440811Y-88012302D01*
X137261149Y-87892255D01*
X138903861Y-87892255D01*
X139732000Y-88720395D01*
X139746142Y-88706252D01*
X139925748Y-88885858D01*
X139911605Y-88900000D01*
X139925748Y-88914143D01*
X139746142Y-89093748D01*
X139732000Y-89079605D01*
X138903861Y-89907745D01*
X138977995Y-90153864D01*
X139515223Y-90346965D01*
X140085454Y-90319778D01*
X140476947Y-90157616D01*
X140680110Y-90296431D01*
X140932000Y-90347440D01*
X142532000Y-90347440D01*
X142767317Y-90303162D01*
X142983441Y-90164090D01*
X143128431Y-89951890D01*
X143179440Y-89700000D01*
X143179440Y-88100000D01*
X143135162Y-87864683D01*
X142996090Y-87648559D01*
X142783890Y-87503569D01*
X142532000Y-87452560D01*
X140932000Y-87452560D01*
X140696683Y-87496838D01*
X140480559Y-87635910D01*
X140476023Y-87642548D01*
X139948777Y-87453035D01*
X139378546Y-87480222D01*
X138977995Y-87646136D01*
X138903861Y-87892255D01*
X137261149Y-87892255D01*
X137058725Y-87757000D01*
X137440811Y-87501698D01*
X137751880Y-87036151D01*
X137833844Y-86624086D01*
X143954269Y-86624086D01*
X144156854Y-87114380D01*
X144531647Y-87489827D01*
X145021587Y-87693268D01*
X145552086Y-87693731D01*
X146042380Y-87491146D01*
X146417827Y-87116353D01*
X146621268Y-86626413D01*
X146621731Y-86095914D01*
X146419146Y-85605620D01*
X146044353Y-85230173D01*
X145554413Y-85026732D01*
X145023914Y-85026269D01*
X144533620Y-85228854D01*
X144158173Y-85603647D01*
X143954732Y-86093587D01*
X143954269Y-86624086D01*
X137833844Y-86624086D01*
X137861113Y-86487000D01*
X137751880Y-85937849D01*
X137440811Y-85472302D01*
X137058725Y-85217000D01*
X137440811Y-84961698D01*
X137751880Y-84496151D01*
X137861113Y-83947000D01*
X137751880Y-83397849D01*
X137440811Y-82932302D01*
X136975264Y-82621233D01*
X136426113Y-82512000D01*
X136369887Y-82512000D01*
X135820736Y-82621233D01*
X135355189Y-82932302D01*
X135044120Y-83397849D01*
X134934887Y-83947000D01*
X130225440Y-83947000D01*
X130225440Y-83147000D01*
X130181162Y-82911683D01*
X130042090Y-82695559D01*
X129829890Y-82550569D01*
X129578000Y-82499560D01*
X127978000Y-82499560D01*
X127742683Y-82543838D01*
X127526559Y-82682910D01*
X127381569Y-82895110D01*
X127330560Y-83147000D01*
X127330560Y-84747000D01*
X127374838Y-84982317D01*
X127513910Y-85198441D01*
X127726110Y-85343431D01*
X127881089Y-85374815D01*
X127735189Y-85472302D01*
X127424120Y-85937849D01*
X127404012Y-86038939D01*
X127201243Y-85548200D01*
X126797923Y-85144176D01*
X126270691Y-84925250D01*
X125699813Y-84924752D01*
X125172200Y-85142757D01*
X124768176Y-85546077D01*
X124549250Y-86073309D01*
X124548752Y-86644187D01*
X120521000Y-86644187D01*
X120521000Y-82367675D01*
X138200000Y-82367675D01*
X138200000Y-82732325D01*
X138314181Y-83306350D01*
X138639340Y-83792985D01*
X139125975Y-84118144D01*
X139700000Y-84232325D01*
X140274025Y-84118144D01*
X140760660Y-83792985D01*
X140966445Y-83485007D01*
X141339143Y-83900793D01*
X141867240Y-84154131D01*
X141880754Y-84156346D01*
X142113000Y-84035224D01*
X142113000Y-82677000D01*
X142093000Y-82677000D01*
X142093000Y-82423000D01*
X142113000Y-82423000D01*
X142113000Y-81064776D01*
X142367000Y-81064776D01*
X142367000Y-82423000D01*
X142387000Y-82423000D01*
X142387000Y-82677000D01*
X142367000Y-82677000D01*
X142367000Y-84035224D01*
X142599246Y-84156346D01*
X142612760Y-84154131D01*
X143140857Y-83900793D01*
X143297799Y-83725707D01*
X143311838Y-83800317D01*
X143450910Y-84016441D01*
X143663110Y-84161431D01*
X143915000Y-84212440D01*
X145645000Y-84212440D01*
X145880317Y-84168162D01*
X146096441Y-84029090D01*
X146241431Y-83816890D01*
X146292440Y-83565000D01*
X146292440Y-81535000D01*
X146264028Y-81384000D01*
X149714275Y-81384000D01*
X149895822Y-82296700D01*
X150412825Y-83070450D01*
X151186575Y-83587453D01*
X152099275Y-83769000D01*
X152192725Y-83769000D01*
X153105425Y-83587453D01*
X153879175Y-83070450D01*
X154396178Y-82296700D01*
X154577725Y-81384000D01*
X154396178Y-80471300D01*
X153879175Y-79697550D01*
X153105425Y-79180547D01*
X152192725Y-78999000D01*
X152099275Y-78999000D01*
X151186575Y-79180547D01*
X150412825Y-79697550D01*
X149895822Y-80471300D01*
X149714275Y-81384000D01*
X146264028Y-81384000D01*
X146248162Y-81299683D01*
X146109090Y-81083559D01*
X145896890Y-80938569D01*
X145645000Y-80887560D01*
X143915000Y-80887560D01*
X143679683Y-80931838D01*
X143463559Y-81070910D01*
X143318569Y-81283110D01*
X143299679Y-81376391D01*
X143140857Y-81199207D01*
X142612760Y-80945869D01*
X142599246Y-80943654D01*
X142367000Y-81064776D01*
X142113000Y-81064776D01*
X141880754Y-80943654D01*
X141867240Y-80945869D01*
X141339143Y-81199207D01*
X140966445Y-81614993D01*
X140760660Y-81307015D01*
X140274025Y-80981856D01*
X139700000Y-80867675D01*
X139125975Y-80981856D01*
X138639340Y-81307015D01*
X138314181Y-81793650D01*
X138200000Y-82367675D01*
X120521000Y-82367675D01*
X120521000Y-81153000D01*
X120463148Y-80862161D01*
X120298401Y-80615599D01*
X120200802Y-80518000D01*
X127314887Y-80518000D01*
X127424120Y-81067151D01*
X127735189Y-81532698D01*
X128200736Y-81843767D01*
X128749887Y-81953000D01*
X128806113Y-81953000D01*
X129355264Y-81843767D01*
X129820811Y-81532698D01*
X130131880Y-81067151D01*
X130184584Y-80802187D01*
X134962752Y-80802187D01*
X135180757Y-81329800D01*
X135584077Y-81733824D01*
X136111309Y-81952750D01*
X136682187Y-81953248D01*
X137209800Y-81735243D01*
X137613824Y-81331923D01*
X137832750Y-80804691D01*
X137833248Y-80233813D01*
X137615243Y-79706200D01*
X137211923Y-79302176D01*
X136684691Y-79083250D01*
X136113813Y-79082752D01*
X135586200Y-79300757D01*
X135182176Y-79704077D01*
X134963250Y-80231309D01*
X134962752Y-80802187D01*
X130184584Y-80802187D01*
X130241113Y-80518000D01*
X130131880Y-79968849D01*
X129820811Y-79503302D01*
X129355264Y-79192233D01*
X128806113Y-79083000D01*
X128749887Y-79083000D01*
X128200736Y-79192233D01*
X127735189Y-79503302D01*
X127424120Y-79968849D01*
X127314887Y-80518000D01*
X120200802Y-80518000D01*
X119663401Y-79980599D01*
X119416839Y-79815852D01*
X119126000Y-79758000D01*
X112522000Y-79758000D01*
X112231161Y-79815852D01*
X111984599Y-79980599D01*
X110206599Y-81758599D01*
X110041852Y-82005161D01*
X109984000Y-82296000D01*
X109984000Y-90155392D01*
X109921139Y-90218253D01*
X109847005Y-89972136D01*
X109309777Y-89779035D01*
X108739546Y-89806222D01*
X108338995Y-89972136D01*
X108264861Y-90218255D01*
X109093000Y-91046395D01*
X109107142Y-91032252D01*
X109286748Y-91211858D01*
X109272605Y-91226000D01*
X109286748Y-91240142D01*
X109107142Y-91419748D01*
X109093000Y-91405605D01*
X108264861Y-92233745D01*
X108338995Y-92479864D01*
X108345483Y-92482196D01*
X108281200Y-92508757D01*
X107877176Y-92912077D01*
X107658250Y-93439309D01*
X107657752Y-94010187D01*
X107875757Y-94537800D01*
X108279077Y-94941824D01*
X108414364Y-94998000D01*
X104652110Y-94998000D01*
X104668380Y-94973651D01*
X104777613Y-94424500D01*
X104668380Y-93875349D01*
X104357311Y-93409802D01*
X103975225Y-93154500D01*
X104357311Y-92899198D01*
X104668380Y-92433651D01*
X104777613Y-91884500D01*
X104668380Y-91335349D01*
X104450470Y-91009223D01*
X107646035Y-91009223D01*
X107673222Y-91579454D01*
X107839136Y-91980005D01*
X108085255Y-92054139D01*
X108913395Y-91226000D01*
X108085255Y-90397861D01*
X107839136Y-90471995D01*
X107646035Y-91009223D01*
X104450470Y-91009223D01*
X104357311Y-90869802D01*
X103975225Y-90614500D01*
X104357311Y-90359198D01*
X104668380Y-89893651D01*
X104777613Y-89344500D01*
X104668380Y-88795349D01*
X104357311Y-88329802D01*
X103891764Y-88018733D01*
X103342613Y-87909500D01*
X103286387Y-87909500D01*
X102737236Y-88018733D01*
X102271689Y-88329802D01*
X101960620Y-88795349D01*
X101851387Y-89344500D01*
X101960620Y-89893651D01*
X102271689Y-90359198D01*
X102653775Y-90614500D01*
X102271689Y-90869802D01*
X101960620Y-91335349D01*
X101851387Y-91884500D01*
X101960620Y-92433651D01*
X102271689Y-92899198D01*
X102653775Y-93154500D01*
X102271689Y-93409802D01*
X101960620Y-93875349D01*
X101851387Y-94424500D01*
X101960620Y-94973651D01*
X101976890Y-94998000D01*
X97032110Y-94998000D01*
X97048380Y-94973651D01*
X97157613Y-94424500D01*
X97048380Y-93875349D01*
X96737311Y-93409802D01*
X96355225Y-93154500D01*
X96737311Y-92899198D01*
X97048380Y-92433651D01*
X97157613Y-91884500D01*
X97048380Y-91335349D01*
X96737311Y-90869802D01*
X96332797Y-90599514D01*
X96549634Y-90496889D01*
X96925541Y-90081923D01*
X97086404Y-89693539D01*
X96964415Y-89471500D01*
X95821500Y-89471500D01*
X95821500Y-89491500D01*
X95567500Y-89491500D01*
X95567500Y-89471500D01*
X95547500Y-89471500D01*
X95547500Y-89217500D01*
X95567500Y-89217500D01*
X95567500Y-88073871D01*
X95821500Y-88073871D01*
X95821500Y-89217500D01*
X96964415Y-89217500D01*
X97086404Y-88995461D01*
X96925541Y-88607077D01*
X96549634Y-88192111D01*
X96043541Y-87952586D01*
X95821500Y-88073871D01*
X95567500Y-88073871D01*
X95345459Y-87952586D01*
X94839366Y-88192111D01*
X94463459Y-88607077D01*
X94361000Y-88854452D01*
X94361000Y-86360000D01*
X96326887Y-86360000D01*
X96436120Y-86909151D01*
X96747189Y-87374698D01*
X97212736Y-87685767D01*
X97761887Y-87795000D01*
X97818113Y-87795000D01*
X98367264Y-87685767D01*
X98832811Y-87374698D01*
X99143880Y-86909151D01*
X99196584Y-86644187D01*
X103974752Y-86644187D01*
X104192757Y-87171800D01*
X104596077Y-87575824D01*
X105123309Y-87794750D01*
X105694187Y-87795248D01*
X106221800Y-87577243D01*
X106625824Y-87173923D01*
X106844750Y-86646691D01*
X106845248Y-86075813D01*
X106627243Y-85548200D01*
X106223923Y-85144176D01*
X105696691Y-84925250D01*
X105125813Y-84924752D01*
X104598200Y-85142757D01*
X104194176Y-85546077D01*
X103975250Y-86073309D01*
X103974752Y-86644187D01*
X99196584Y-86644187D01*
X99253113Y-86360000D01*
X99143880Y-85810849D01*
X98832811Y-85345302D01*
X98367264Y-85034233D01*
X97818113Y-84925000D01*
X97761887Y-84925000D01*
X97212736Y-85034233D01*
X96747189Y-85345302D01*
X96436120Y-85810849D01*
X96326887Y-86360000D01*
X94361000Y-86360000D01*
X94361000Y-80265000D01*
X97547560Y-80265000D01*
X97547560Y-82295000D01*
X97591838Y-82530317D01*
X97730910Y-82746441D01*
X97943110Y-82891431D01*
X98195000Y-82942440D01*
X99925000Y-82942440D01*
X100160317Y-82898162D01*
X100376441Y-82759090D01*
X100521431Y-82546890D01*
X100529311Y-82507976D01*
X100539340Y-82522985D01*
X101025975Y-82848144D01*
X101600000Y-82962325D01*
X102174025Y-82848144D01*
X102660660Y-82522985D01*
X102866445Y-82215007D01*
X103239143Y-82630793D01*
X103767240Y-82884131D01*
X103780754Y-82886346D01*
X104013000Y-82765224D01*
X104013000Y-81407000D01*
X104267000Y-81407000D01*
X104267000Y-82765224D01*
X104499246Y-82886346D01*
X104512760Y-82884131D01*
X105040857Y-82630793D01*
X105431807Y-82194645D01*
X105626091Y-81642087D01*
X105482222Y-81407000D01*
X104267000Y-81407000D01*
X104013000Y-81407000D01*
X103993000Y-81407000D01*
X103993000Y-81153000D01*
X104013000Y-81153000D01*
X104013000Y-79794776D01*
X104267000Y-79794776D01*
X104267000Y-81153000D01*
X105482222Y-81153000D01*
X105626091Y-80917913D01*
X105431807Y-80365355D01*
X105040857Y-79929207D01*
X104512760Y-79675869D01*
X104499246Y-79673654D01*
X104267000Y-79794776D01*
X104013000Y-79794776D01*
X103780754Y-79673654D01*
X103767240Y-79675869D01*
X103239143Y-79929207D01*
X102866445Y-80344993D01*
X102660660Y-80037015D01*
X102174025Y-79711856D01*
X101600000Y-79597675D01*
X101025975Y-79711856D01*
X100539340Y-80037015D01*
X100531695Y-80048457D01*
X100528162Y-80029683D01*
X100389090Y-79813559D01*
X100176890Y-79668569D01*
X99925000Y-79617560D01*
X98195000Y-79617560D01*
X97959683Y-79661838D01*
X97743559Y-79800910D01*
X97598569Y-80013110D01*
X97547560Y-80265000D01*
X94361000Y-80265000D01*
X94361000Y-78105000D01*
X157607000Y-78105000D01*
X157607000Y-121539000D01*
X157607000Y-121539000D01*
G37*
X157607000Y-121539000D02*
X114265152Y-121539000D01*
X114623264Y-121467767D01*
X115088811Y-121156698D01*
X115399880Y-120691151D01*
X115509113Y-120142000D01*
X115399880Y-119592849D01*
X115088811Y-119127302D01*
X114623264Y-118816233D01*
X114074113Y-118707000D01*
X114017887Y-118707000D01*
X113468736Y-118816233D01*
X113003189Y-119127302D01*
X112692120Y-119592849D01*
X112582887Y-120142000D01*
X112692120Y-120691151D01*
X113003189Y-121156698D01*
X113468736Y-121467767D01*
X113826848Y-121539000D01*
X106802754Y-121539000D01*
X107237800Y-121359243D01*
X107641824Y-120955923D01*
X107860750Y-120428691D01*
X107861248Y-119857813D01*
X107643243Y-119330200D01*
X107239923Y-118926176D01*
X107186000Y-118903785D01*
X107186000Y-118491000D01*
X107128148Y-118200161D01*
X106963401Y-117953599D01*
X106170000Y-117160198D01*
X106170000Y-116109750D01*
X106936000Y-116109750D01*
X106936000Y-116710310D01*
X107032673Y-116943699D01*
X107211302Y-117122327D01*
X107444691Y-117219000D01*
X108045250Y-117219000D01*
X108204000Y-117060250D01*
X108204000Y-115951000D01*
X108458000Y-115951000D01*
X108458000Y-117060250D01*
X108616750Y-117219000D01*
X109217309Y-117219000D01*
X109450698Y-117122327D01*
X109510986Y-117062039D01*
X110749096Y-117062039D01*
X110909959Y-117450423D01*
X111285866Y-117865389D01*
X111791959Y-118104914D01*
X112014000Y-117983629D01*
X112014000Y-116840000D01*
X112268000Y-116840000D01*
X112268000Y-117983629D01*
X112490041Y-118104914D01*
X112996134Y-117865389D01*
X113372041Y-117450423D01*
X113532904Y-117062039D01*
X113410915Y-116840000D01*
X112268000Y-116840000D01*
X112014000Y-116840000D01*
X110871085Y-116840000D01*
X110749096Y-117062039D01*
X109510986Y-117062039D01*
X109629327Y-116943699D01*
X109726000Y-116710310D01*
X109726000Y-116109750D01*
X109567250Y-115951000D01*
X108458000Y-115951000D01*
X108204000Y-115951000D01*
X107094750Y-115951000D01*
X106936000Y-116109750D01*
X106170000Y-116109750D01*
X106170000Y-111020265D01*
X106935758Y-111020265D01*
X107147687Y-111533172D01*
X107539764Y-111925934D01*
X107751738Y-112013954D01*
X107541828Y-112100687D01*
X107149066Y-112492764D01*
X106936242Y-113005300D01*
X106935758Y-113560265D01*
X107147687Y-114073172D01*
X107502894Y-114429000D01*
X107444691Y-114429000D01*
X107211302Y-114525673D01*
X107032673Y-114704301D01*
X106936000Y-114937690D01*
X106936000Y-115538250D01*
X107094750Y-115697000D01*
X108204000Y-115697000D01*
X108204000Y-115677000D01*
X108458000Y-115677000D01*
X108458000Y-115697000D01*
X109567250Y-115697000D01*
X109726000Y-115538250D01*
X109726000Y-114937690D01*
X109629327Y-114704301D01*
X109450698Y-114525673D01*
X109217309Y-114429000D01*
X109158552Y-114429000D01*
X109512934Y-114075236D01*
X109725758Y-113562700D01*
X109726242Y-113007735D01*
X109514313Y-112494828D01*
X109122236Y-112102066D01*
X108910262Y-112014046D01*
X109120172Y-111927313D01*
X109512934Y-111535236D01*
X109725758Y-111022700D01*
X109726242Y-110467735D01*
X109514313Y-109954828D01*
X109122236Y-109562066D01*
X108609700Y-109349242D01*
X108054735Y-109348758D01*
X107541828Y-109560687D01*
X107149066Y-109952764D01*
X106936242Y-110465300D01*
X106935758Y-111020265D01*
X106170000Y-111020265D01*
X106170000Y-110998000D01*
X106112148Y-110707161D01*
X105947401Y-110460599D01*
X105185401Y-109698599D01*
X104938839Y-109533852D01*
X104648000Y-109476000D01*
X104442440Y-109476000D01*
X104442440Y-109311000D01*
X104398162Y-109075683D01*
X104259090Y-108859559D01*
X104046890Y-108714569D01*
X103795000Y-108663560D01*
X101945000Y-108663560D01*
X101709683Y-108707838D01*
X101493559Y-108846910D01*
X101348569Y-109059110D01*
X101297560Y-109311000D01*
X101297560Y-111161000D01*
X101341838Y-111396317D01*
X101480910Y-111612441D01*
X101662874Y-111736771D01*
X101548268Y-111851177D01*
X101310272Y-112424336D01*
X101309730Y-113044942D01*
X101546725Y-113618514D01*
X101913826Y-113986256D01*
X101548268Y-114351177D01*
X101310272Y-114924336D01*
X101309730Y-115544942D01*
X101546725Y-116118514D01*
X101980574Y-116553121D01*
X101951349Y-116637744D01*
X102870000Y-117556395D01*
X103788651Y-116637744D01*
X103759235Y-116552566D01*
X104191732Y-116120823D01*
X104429728Y-115547664D01*
X104430270Y-114927058D01*
X104193275Y-114353486D01*
X103826174Y-113985744D01*
X104191732Y-113620823D01*
X104429728Y-113047664D01*
X104430270Y-112427058D01*
X104193275Y-111853486D01*
X104075246Y-111735251D01*
X104246441Y-111625090D01*
X104391431Y-111412890D01*
X104442440Y-111161000D01*
X104442440Y-111105242D01*
X104650000Y-111312802D01*
X104650000Y-117475000D01*
X104707852Y-117765839D01*
X104872599Y-118012401D01*
X105666000Y-118805802D01*
X105666000Y-118903354D01*
X105614200Y-118924757D01*
X105210176Y-119328077D01*
X104991250Y-119855309D01*
X104990752Y-120426187D01*
X105208757Y-120953800D01*
X105612077Y-121357824D01*
X106048397Y-121539000D01*
X94361000Y-121539000D01*
X94361000Y-118834256D01*
X101951349Y-118834256D01*
X102040821Y-119093332D01*
X102623368Y-119307325D01*
X103243461Y-119282097D01*
X103699179Y-119093332D01*
X103788651Y-118834256D01*
X102870000Y-117915605D01*
X101951349Y-118834256D01*
X94361000Y-118834256D01*
X94361000Y-117489368D01*
X101298675Y-117489368D01*
X101323903Y-118109461D01*
X101512668Y-118565179D01*
X101771744Y-118654651D01*
X102690395Y-117736000D01*
X103049605Y-117736000D01*
X103968256Y-118654651D01*
X104227332Y-118565179D01*
X104441325Y-117982632D01*
X104416097Y-117362539D01*
X104227332Y-116906821D01*
X103968256Y-116817349D01*
X103049605Y-117736000D01*
X102690395Y-117736000D01*
X101771744Y-116817349D01*
X101512668Y-116906821D01*
X101298675Y-117489368D01*
X94361000Y-117489368D01*
X94361000Y-106417745D01*
X98311861Y-106417745D01*
X98385995Y-106663864D01*
X98923223Y-106856965D01*
X99493454Y-106829778D01*
X99894005Y-106663864D01*
X99968139Y-106417745D01*
X99140000Y-105589605D01*
X98311861Y-106417745D01*
X94361000Y-106417745D01*
X94361000Y-105193223D01*
X97693035Y-105193223D01*
X97720222Y-105763454D01*
X97886136Y-106164005D01*
X98132255Y-106238139D01*
X98960395Y-105410000D01*
X99319605Y-105410000D01*
X100147745Y-106238139D01*
X100393864Y-106164005D01*
X100562735Y-105694187D01*
X102704752Y-105694187D01*
X102922757Y-106221800D01*
X103326077Y-106625824D01*
X103853309Y-106844750D01*
X104424187Y-106845248D01*
X104951800Y-106627243D01*
X105355824Y-106223923D01*
X105557478Y-105738285D01*
X106691760Y-105738285D01*
X106902169Y-106247515D01*
X107291436Y-106637461D01*
X107800298Y-106848759D01*
X108351285Y-106849240D01*
X108860515Y-106638831D01*
X109250461Y-106249564D01*
X109461759Y-105740702D01*
X109462240Y-105189715D01*
X109251831Y-104680485D01*
X108862564Y-104290539D01*
X108353702Y-104079241D01*
X107802715Y-104078760D01*
X107293485Y-104289169D01*
X106903539Y-104678436D01*
X106692241Y-105187298D01*
X106691760Y-105738285D01*
X105557478Y-105738285D01*
X105574750Y-105696691D01*
X105575248Y-105125813D01*
X105357243Y-104598200D01*
X104953923Y-104194176D01*
X104426691Y-103975250D01*
X103855813Y-103974752D01*
X103328200Y-104192757D01*
X102924176Y-104596077D01*
X102705250Y-105123309D01*
X102704752Y-105694187D01*
X100562735Y-105694187D01*
X100586965Y-105626777D01*
X100559778Y-105056546D01*
X100393864Y-104655995D01*
X100147745Y-104581861D01*
X99319605Y-105410000D01*
X98960395Y-105410000D01*
X98132255Y-104581861D01*
X97886136Y-104655995D01*
X97693035Y-105193223D01*
X94361000Y-105193223D01*
X94361000Y-104402255D01*
X98311861Y-104402255D01*
X99140000Y-105230395D01*
X99968139Y-104402255D01*
X99894005Y-104156136D01*
X99356777Y-103963035D01*
X98786546Y-103990222D01*
X98385995Y-104156136D01*
X98311861Y-104402255D01*
X94361000Y-104402255D01*
X94361000Y-101337745D01*
X98311861Y-101337745D01*
X98385995Y-101583864D01*
X98923223Y-101776965D01*
X99493454Y-101749778D01*
X99894005Y-101583864D01*
X99968139Y-101337745D01*
X99140000Y-100509605D01*
X98311861Y-101337745D01*
X94361000Y-101337745D01*
X94361000Y-100113223D01*
X97693035Y-100113223D01*
X97720222Y-100683454D01*
X97886136Y-101084005D01*
X98132255Y-101158139D01*
X98960395Y-100330000D01*
X99319605Y-100330000D01*
X100147745Y-101158139D01*
X100393864Y-101084005D01*
X100562735Y-100614187D01*
X102704752Y-100614187D01*
X102922757Y-101141800D01*
X103326077Y-101545824D01*
X103853309Y-101764750D01*
X104424187Y-101765248D01*
X104951800Y-101547243D01*
X105355824Y-101143923D01*
X105474431Y-100858285D01*
X106691760Y-100858285D01*
X106902169Y-101367515D01*
X107291436Y-101757461D01*
X107800298Y-101968759D01*
X108351285Y-101969240D01*
X108860515Y-101758831D01*
X109250461Y-101369564D01*
X109461759Y-100860702D01*
X109462240Y-100309715D01*
X109251831Y-99800485D01*
X108862564Y-99410539D01*
X108353702Y-99199241D01*
X107802715Y-99198760D01*
X107293485Y-99409169D01*
X106903539Y-99798436D01*
X106692241Y-100307298D01*
X106691760Y-100858285D01*
X105474431Y-100858285D01*
X105574750Y-100616691D01*
X105575248Y-100045813D01*
X105357243Y-99518200D01*
X104953923Y-99114176D01*
X104426691Y-98895250D01*
X103855813Y-98894752D01*
X103328200Y-99112757D01*
X102924176Y-99516077D01*
X102705250Y-100043309D01*
X102704752Y-100614187D01*
X100562735Y-100614187D01*
X100586965Y-100546777D01*
X100559778Y-99976546D01*
X100393864Y-99575995D01*
X100147745Y-99501861D01*
X99319605Y-100330000D01*
X98960395Y-100330000D01*
X98132255Y-99501861D01*
X97886136Y-99575995D01*
X97693035Y-100113223D01*
X94361000Y-100113223D01*
X94361000Y-99322255D01*
X98311861Y-99322255D01*
X99140000Y-100150395D01*
X99968139Y-99322255D01*
X99894005Y-99076136D01*
X99356777Y-98883035D01*
X98786546Y-98910222D01*
X98385995Y-99076136D01*
X98311861Y-99322255D01*
X94361000Y-99322255D01*
X94361000Y-97544152D01*
X94651689Y-97979198D01*
X95117236Y-98290267D01*
X95666387Y-98399500D01*
X95722613Y-98399500D01*
X96271764Y-98290267D01*
X96737311Y-97979198D01*
X97048380Y-97513651D01*
X97157613Y-96964500D01*
X97114259Y-96746543D01*
X97342802Y-96518000D01*
X101867060Y-96518000D01*
X101867060Y-97764500D01*
X101911338Y-97999817D01*
X102050410Y-98215941D01*
X102262610Y-98360931D01*
X102514500Y-98411940D01*
X104114500Y-98411940D01*
X104349817Y-98367662D01*
X104565941Y-98228590D01*
X104710931Y-98016390D01*
X104761940Y-97764500D01*
X104761940Y-96518000D01*
X109982000Y-96518000D01*
X110272839Y-96460148D01*
X110519401Y-96295401D01*
X110741474Y-96073328D01*
X110677887Y-96393000D01*
X110787120Y-96942151D01*
X111098189Y-97407698D01*
X111480275Y-97663000D01*
X111098189Y-97918302D01*
X110787120Y-98383849D01*
X110677887Y-98933000D01*
X110787120Y-99482151D01*
X111098189Y-99947698D01*
X111480275Y-100203000D01*
X111098189Y-100458302D01*
X110787120Y-100923849D01*
X110677887Y-101473000D01*
X110787120Y-102022151D01*
X111098189Y-102487698D01*
X111480275Y-102743000D01*
X111098189Y-102998302D01*
X110787120Y-103463849D01*
X110677887Y-104013000D01*
X110787120Y-104562151D01*
X111098189Y-105027698D01*
X111480275Y-105283000D01*
X111098189Y-105538302D01*
X110787120Y-106003849D01*
X110677887Y-106553000D01*
X110787120Y-107102151D01*
X111098189Y-107567698D01*
X111480275Y-107823000D01*
X111098189Y-108078302D01*
X110787120Y-108543849D01*
X110677887Y-109093000D01*
X110787120Y-109642151D01*
X111098189Y-110107698D01*
X111480275Y-110363000D01*
X111098189Y-110618302D01*
X110787120Y-111083849D01*
X110677887Y-111633000D01*
X110787120Y-112182151D01*
X111098189Y-112647698D01*
X111480275Y-112903000D01*
X111098189Y-113158302D01*
X110787120Y-113623849D01*
X110677887Y-114173000D01*
X110787120Y-114722151D01*
X111098189Y-115187698D01*
X111502703Y-115457986D01*
X111285866Y-115560611D01*
X110909959Y-115975577D01*
X110749096Y-116363961D01*
X110871085Y-116586000D01*
X112014000Y-116586000D01*
X112014000Y-116566000D01*
X112268000Y-116566000D01*
X112268000Y-116586000D01*
X113410915Y-116586000D01*
X113532904Y-116363961D01*
X113372041Y-115975577D01*
X112996134Y-115560611D01*
X112779297Y-115457986D01*
X113183811Y-115187698D01*
X113494880Y-114722151D01*
X113604113Y-114173000D01*
X113494880Y-113623849D01*
X113183811Y-113158302D01*
X112801725Y-112903000D01*
X113183811Y-112647698D01*
X113494880Y-112182151D01*
X113604113Y-111633000D01*
X113494880Y-111083849D01*
X113183811Y-110618302D01*
X112801725Y-110363000D01*
X113183811Y-110107698D01*
X113494880Y-109642151D01*
X113604113Y-109093000D01*
X113494880Y-108543849D01*
X113183811Y-108078302D01*
X112801725Y-107823000D01*
X113183811Y-107567698D01*
X113494880Y-107102151D01*
X113604113Y-106553000D01*
X113494880Y-106003849D01*
X113183811Y-105538302D01*
X112801725Y-105283000D01*
X113183811Y-105027698D01*
X113494880Y-104562151D01*
X113604113Y-104013000D01*
X113494880Y-103463849D01*
X113183811Y-102998302D01*
X112801725Y-102743000D01*
X113183811Y-102487698D01*
X113494880Y-102022151D01*
X113604113Y-101473000D01*
X113494880Y-100923849D01*
X113183811Y-100458302D01*
X112801725Y-100203000D01*
X113183811Y-99947698D01*
X113494880Y-99482151D01*
X113604113Y-98933000D01*
X113494880Y-98383849D01*
X113183811Y-97918302D01*
X112801725Y-97663000D01*
X113183811Y-97407698D01*
X113494880Y-96942151D01*
X113604113Y-96393000D01*
X113494880Y-95843849D01*
X113183811Y-95378302D01*
X113039535Y-95281899D01*
X113176317Y-95256162D01*
X113392441Y-95117090D01*
X113537431Y-94904890D01*
X113588440Y-94653000D01*
X113588440Y-93053000D01*
X113544162Y-92817683D01*
X113405090Y-92601559D01*
X113192890Y-92456569D01*
X112941000Y-92405560D01*
X111504000Y-92405560D01*
X111504000Y-91836853D01*
X111563736Y-91876767D01*
X112112887Y-91986000D01*
X112169113Y-91986000D01*
X112718264Y-91876767D01*
X113183811Y-91565698D01*
X113494880Y-91100151D01*
X113604113Y-90551000D01*
X113494880Y-90001849D01*
X113183811Y-89536302D01*
X112718264Y-89225233D01*
X112169113Y-89116000D01*
X112112887Y-89116000D01*
X111563736Y-89225233D01*
X111504000Y-89265147D01*
X111504000Y-85749657D01*
X111887510Y-86169821D01*
X112416973Y-86417968D01*
X112649000Y-86297469D01*
X112649000Y-85090000D01*
X112629000Y-85090000D01*
X112629000Y-84836000D01*
X112649000Y-84836000D01*
X112649000Y-84816000D01*
X112903000Y-84816000D01*
X112903000Y-84836000D01*
X112923000Y-84836000D01*
X112923000Y-85090000D01*
X112903000Y-85090000D01*
X112903000Y-86297469D01*
X113135027Y-86417968D01*
X113664490Y-86169821D01*
X114046008Y-85751839D01*
X114226971Y-86022670D01*
X114713152Y-86347526D01*
X115286641Y-86461600D01*
X115345359Y-86461600D01*
X115826000Y-86365995D01*
X115826000Y-94742000D01*
X115883852Y-95032839D01*
X116048599Y-95279401D01*
X117699599Y-96930401D01*
X117946161Y-97095148D01*
X118237000Y-97153000D01*
X118548005Y-97153000D01*
X118718189Y-97407698D01*
X119100275Y-97663000D01*
X118718189Y-97918302D01*
X118407120Y-98383849D01*
X118297887Y-98933000D01*
X118407120Y-99482151D01*
X118718189Y-99947698D01*
X119100275Y-100203000D01*
X118718189Y-100458302D01*
X118407120Y-100923849D01*
X118297887Y-101473000D01*
X118407120Y-102022151D01*
X118718189Y-102487698D01*
X119100275Y-102743000D01*
X118718189Y-102998302D01*
X118407120Y-103463849D01*
X118297887Y-104013000D01*
X118407120Y-104562151D01*
X118718189Y-105027698D01*
X119100275Y-105283000D01*
X118718189Y-105538302D01*
X118407120Y-106003849D01*
X118297887Y-106553000D01*
X118407120Y-107102151D01*
X118718189Y-107567698D01*
X119100275Y-107823000D01*
X118718189Y-108078302D01*
X118407120Y-108543849D01*
X118297887Y-109093000D01*
X118407120Y-109642151D01*
X118718189Y-110107698D01*
X119100275Y-110363000D01*
X118718189Y-110618302D01*
X118407120Y-111083849D01*
X118297887Y-111633000D01*
X118407120Y-112182151D01*
X118718189Y-112647698D01*
X119100275Y-112903000D01*
X118718189Y-113158302D01*
X118407120Y-113623849D01*
X118297887Y-114173000D01*
X118407120Y-114722151D01*
X118718189Y-115187698D01*
X119100275Y-115443000D01*
X118718189Y-115698302D01*
X118407120Y-116163849D01*
X118297887Y-116713000D01*
X118407120Y-117262151D01*
X118718189Y-117727698D01*
X119183736Y-118038767D01*
X119732887Y-118148000D01*
X119789113Y-118148000D01*
X120338264Y-118038767D01*
X120803811Y-117727698D01*
X121114880Y-117262151D01*
X121224113Y-116713000D01*
X121114880Y-116163849D01*
X120803811Y-115698302D01*
X120421725Y-115443000D01*
X120803811Y-115187698D01*
X121114880Y-114722151D01*
X121224113Y-114173000D01*
X121114880Y-113623849D01*
X120803811Y-113158302D01*
X120421725Y-112903000D01*
X120803811Y-112647698D01*
X121114880Y-112182151D01*
X121224113Y-111633000D01*
X121160526Y-111313328D01*
X121791312Y-111944114D01*
X121726887Y-112268000D01*
X121836120Y-112817151D01*
X122147189Y-113282698D01*
X122529275Y-113538000D01*
X122147189Y-113793302D01*
X121836120Y-114258849D01*
X121726887Y-114808000D01*
X121836120Y-115357151D01*
X122147189Y-115822698D01*
X122612736Y-116133767D01*
X123161887Y-116243000D01*
X123218113Y-116243000D01*
X123767264Y-116133767D01*
X124232811Y-115822698D01*
X124543880Y-115357151D01*
X124653113Y-114808000D01*
X124576154Y-114421101D01*
X124684599Y-114583401D01*
X125446599Y-115345401D01*
X125693161Y-115510148D01*
X125984000Y-115568000D01*
X129597005Y-115568000D01*
X129767189Y-115822698D01*
X130232736Y-116133767D01*
X130781887Y-116243000D01*
X130838113Y-116243000D01*
X131387264Y-116133767D01*
X131470725Y-116078000D01*
X138285305Y-116078000D01*
X138390775Y-116608235D01*
X138691129Y-117057746D01*
X139140640Y-117358100D01*
X139670875Y-117463570D01*
X141253125Y-117463570D01*
X141783360Y-117358100D01*
X142232871Y-117057746D01*
X142533225Y-116608235D01*
X142638695Y-116078000D01*
X142533225Y-115547765D01*
X142232871Y-115098254D01*
X141783360Y-114797900D01*
X141750598Y-114791383D01*
X141858867Y-114759339D01*
X142280848Y-114417784D01*
X142540000Y-113940743D01*
X142554183Y-113869115D01*
X142431529Y-113654840D01*
X140589000Y-113654840D01*
X140589000Y-113674840D01*
X140335000Y-113674840D01*
X140335000Y-113654840D01*
X138492471Y-113654840D01*
X138369817Y-113869115D01*
X138384000Y-113940743D01*
X138643152Y-114417784D01*
X139065133Y-114759339D01*
X139173402Y-114791383D01*
X139140640Y-114797900D01*
X138691129Y-115098254D01*
X138390775Y-115547765D01*
X138285305Y-116078000D01*
X131470725Y-116078000D01*
X131852811Y-115822698D01*
X132163880Y-115357151D01*
X132273113Y-114808000D01*
X132163880Y-114258849D01*
X131852811Y-113793302D01*
X131470725Y-113538000D01*
X131852811Y-113282698D01*
X131917045Y-113186565D01*
X138369817Y-113186565D01*
X138492471Y-113400840D01*
X140335000Y-113400840D01*
X140335000Y-112142270D01*
X140589000Y-112142270D01*
X140589000Y-113400840D01*
X142431529Y-113400840D01*
X142554183Y-113186565D01*
X142540000Y-113114937D01*
X142280848Y-112637896D01*
X141858867Y-112296341D01*
X141338300Y-112142270D01*
X140589000Y-112142270D01*
X140335000Y-112142270D01*
X139585700Y-112142270D01*
X139065133Y-112296341D01*
X138643152Y-112637896D01*
X138384000Y-113114937D01*
X138369817Y-113186565D01*
X131917045Y-113186565D01*
X132163880Y-112817151D01*
X132273113Y-112268000D01*
X132163880Y-111718849D01*
X131852811Y-111253302D01*
X131470725Y-110998000D01*
X131852811Y-110742698D01*
X132163880Y-110277151D01*
X132273113Y-109728000D01*
X132163880Y-109178849D01*
X131852811Y-108713302D01*
X131501136Y-108478320D01*
X138285305Y-108478320D01*
X138390775Y-109008555D01*
X138691129Y-109458066D01*
X139140640Y-109758420D01*
X139670875Y-109863890D01*
X141253125Y-109863890D01*
X141783360Y-109758420D01*
X142232871Y-109458066D01*
X142533225Y-109008555D01*
X142535685Y-108996187D01*
X147154752Y-108996187D01*
X147372757Y-109523800D01*
X147776077Y-109927824D01*
X148303309Y-110146750D01*
X148874187Y-110147248D01*
X149401800Y-109929243D01*
X149805824Y-109525923D01*
X150024750Y-108998691D01*
X150025248Y-108427813D01*
X149807243Y-107900200D01*
X149403923Y-107496176D01*
X149337456Y-107468577D01*
X149344005Y-107465864D01*
X149418139Y-107219745D01*
X148590000Y-106391605D01*
X147761861Y-107219745D01*
X147835995Y-107465864D01*
X147842483Y-107468196D01*
X147778200Y-107494757D01*
X147374176Y-107898077D01*
X147155250Y-108425309D01*
X147154752Y-108996187D01*
X142535685Y-108996187D01*
X142638695Y-108478320D01*
X142533225Y-107948085D01*
X142232871Y-107498574D01*
X141783360Y-107198220D01*
X141750679Y-107191719D01*
X141858867Y-107159699D01*
X142280848Y-106818144D01*
X142540000Y-106341103D01*
X142554183Y-106269475D01*
X142431529Y-106055200D01*
X140589000Y-106055200D01*
X140589000Y-106075200D01*
X140335000Y-106075200D01*
X140335000Y-106055200D01*
X138492471Y-106055200D01*
X138369817Y-106269475D01*
X138384000Y-106341103D01*
X138643152Y-106818144D01*
X139065133Y-107159699D01*
X139173321Y-107191719D01*
X139140640Y-107198220D01*
X138691129Y-107498574D01*
X138390775Y-107948085D01*
X138285305Y-108478320D01*
X131501136Y-108478320D01*
X131470725Y-108458000D01*
X131852811Y-108202698D01*
X132163880Y-107737151D01*
X132224231Y-107433745D01*
X132775861Y-107433745D01*
X132849995Y-107679864D01*
X133387223Y-107872965D01*
X133957454Y-107845778D01*
X134358005Y-107679864D01*
X134432139Y-107433745D01*
X133604000Y-106605605D01*
X132775861Y-107433745D01*
X132224231Y-107433745D01*
X132273113Y-107188000D01*
X132198894Y-106814874D01*
X132350136Y-107180005D01*
X132596255Y-107254139D01*
X133424395Y-106426000D01*
X133783605Y-106426000D01*
X134611745Y-107254139D01*
X134857864Y-107180005D01*
X135026735Y-106710187D01*
X135470752Y-106710187D01*
X135688757Y-107237800D01*
X136092077Y-107641824D01*
X136619309Y-107860750D01*
X137190187Y-107861248D01*
X137717800Y-107643243D01*
X138121824Y-107239923D01*
X138340750Y-106712691D01*
X138341248Y-106141813D01*
X138280679Y-105995223D01*
X147143035Y-105995223D01*
X147170222Y-106565454D01*
X147336136Y-106966005D01*
X147582255Y-107040139D01*
X148410395Y-106212000D01*
X148769605Y-106212000D01*
X149597745Y-107040139D01*
X149843864Y-106966005D01*
X150036965Y-106428777D01*
X150009778Y-105858546D01*
X149843864Y-105457995D01*
X149597745Y-105383861D01*
X148769605Y-106212000D01*
X148410395Y-106212000D01*
X147582255Y-105383861D01*
X147336136Y-105457995D01*
X147143035Y-105995223D01*
X138280679Y-105995223D01*
X138123243Y-105614200D01*
X137719923Y-105210176D01*
X137192691Y-104991250D01*
X136621813Y-104990752D01*
X136094200Y-105208757D01*
X135690176Y-105612077D01*
X135471250Y-106139309D01*
X135470752Y-106710187D01*
X135026735Y-106710187D01*
X135050965Y-106642777D01*
X135023778Y-106072546D01*
X134857864Y-105671995D01*
X134611745Y-105597861D01*
X133783605Y-106426000D01*
X133424395Y-106426000D01*
X132596255Y-105597861D01*
X132350136Y-105671995D01*
X132157035Y-106209223D01*
X132181818Y-106729029D01*
X132163880Y-106638849D01*
X131852811Y-106173302D01*
X131470725Y-105918000D01*
X131852811Y-105662698D01*
X132016142Y-105418255D01*
X132775861Y-105418255D01*
X133604000Y-106246395D01*
X134432139Y-105418255D01*
X134358005Y-105172136D01*
X133820777Y-104979035D01*
X133250546Y-105006222D01*
X132849995Y-105172136D01*
X132775861Y-105418255D01*
X132016142Y-105418255D01*
X132163880Y-105197151D01*
X132273113Y-104648000D01*
X132163880Y-104098849D01*
X131852811Y-103633302D01*
X131470725Y-103378000D01*
X138285305Y-103378000D01*
X138390775Y-103908235D01*
X138691129Y-104357746D01*
X139140640Y-104658100D01*
X139173483Y-104664633D01*
X139065133Y-104696701D01*
X138643152Y-105038256D01*
X138384000Y-105515297D01*
X138369817Y-105586925D01*
X138492471Y-105801200D01*
X140335000Y-105801200D01*
X140335000Y-105781200D01*
X140589000Y-105781200D01*
X140589000Y-105801200D01*
X142431529Y-105801200D01*
X142554183Y-105586925D01*
X142540000Y-105515297D01*
X142280848Y-105038256D01*
X141858867Y-104696701D01*
X141750517Y-104664633D01*
X141783360Y-104658100D01*
X142232871Y-104357746D01*
X142358194Y-104170187D01*
X147154752Y-104170187D01*
X147372757Y-104697800D01*
X147776077Y-105101824D01*
X147790865Y-105107964D01*
X147761861Y-105204255D01*
X148590000Y-106032395D01*
X149418139Y-105204255D01*
X149389272Y-105108419D01*
X149401800Y-105103243D01*
X149805824Y-104699923D01*
X150024750Y-104172691D01*
X150025248Y-103601813D01*
X149807243Y-103074200D01*
X149403923Y-102670176D01*
X149337456Y-102642577D01*
X149344005Y-102639864D01*
X149418139Y-102393745D01*
X148590000Y-101565605D01*
X147761861Y-102393745D01*
X147835995Y-102639864D01*
X147842483Y-102642196D01*
X147778200Y-102668757D01*
X147374176Y-103072077D01*
X147155250Y-103599309D01*
X147154752Y-104170187D01*
X142358194Y-104170187D01*
X142533225Y-103908235D01*
X142638695Y-103378000D01*
X142533225Y-102847765D01*
X142232871Y-102398254D01*
X141783360Y-102097900D01*
X141253125Y-101992430D01*
X139670875Y-101992430D01*
X139140640Y-102097900D01*
X138691129Y-102398254D01*
X138390775Y-102847765D01*
X138285305Y-103378000D01*
X131470725Y-103378000D01*
X131852811Y-103122698D01*
X132163880Y-102657151D01*
X132273113Y-102108000D01*
X132163880Y-101558849D01*
X131903540Y-101169223D01*
X147143035Y-101169223D01*
X147170222Y-101739454D01*
X147336136Y-102140005D01*
X147582255Y-102214139D01*
X148410395Y-101386000D01*
X148769605Y-101386000D01*
X149597745Y-102214139D01*
X149843864Y-102140005D01*
X149858335Y-102099745D01*
X151611861Y-102099745D01*
X151685995Y-102345864D01*
X152223223Y-102538965D01*
X152793454Y-102511778D01*
X153194005Y-102345864D01*
X153268139Y-102099745D01*
X152440000Y-101271605D01*
X151611861Y-102099745D01*
X149858335Y-102099745D01*
X150036965Y-101602777D01*
X150009778Y-101032546D01*
X149944613Y-100875223D01*
X150993035Y-100875223D01*
X151020222Y-101445454D01*
X151186136Y-101846005D01*
X151432255Y-101920139D01*
X152260395Y-101092000D01*
X152619605Y-101092000D01*
X153447745Y-101920139D01*
X153693864Y-101846005D01*
X153696196Y-101839517D01*
X153722757Y-101903800D01*
X154126077Y-102307824D01*
X154653309Y-102526750D01*
X155224187Y-102527248D01*
X155751800Y-102309243D01*
X156155824Y-101905923D01*
X156374750Y-101378691D01*
X156375248Y-100807813D01*
X156157243Y-100280200D01*
X155753923Y-99876176D01*
X155226691Y-99657250D01*
X154655813Y-99656752D01*
X154128200Y-99874757D01*
X153724176Y-100278077D01*
X153696577Y-100344544D01*
X153693864Y-100337995D01*
X153447745Y-100263861D01*
X152619605Y-101092000D01*
X152260395Y-101092000D01*
X151432255Y-100263861D01*
X151186136Y-100337995D01*
X150993035Y-100875223D01*
X149944613Y-100875223D01*
X149843864Y-100631995D01*
X149597745Y-100557861D01*
X148769605Y-101386000D01*
X148410395Y-101386000D01*
X147582255Y-100557861D01*
X147336136Y-100631995D01*
X147143035Y-101169223D01*
X131903540Y-101169223D01*
X131852811Y-101093302D01*
X131470725Y-100838000D01*
X131852811Y-100582698D01*
X131989415Y-100378255D01*
X147761861Y-100378255D01*
X148590000Y-101206395D01*
X149418139Y-100378255D01*
X149344005Y-100132136D01*
X149210795Y-100084255D01*
X151611861Y-100084255D01*
X152440000Y-100912395D01*
X153268139Y-100084255D01*
X153194005Y-99838136D01*
X152656777Y-99645035D01*
X152086546Y-99672222D01*
X151685995Y-99838136D01*
X151611861Y-100084255D01*
X149210795Y-100084255D01*
X148806777Y-99939035D01*
X148236546Y-99966222D01*
X147835995Y-100132136D01*
X147761861Y-100378255D01*
X131989415Y-100378255D01*
X132163880Y-100117151D01*
X132273113Y-99568000D01*
X132163880Y-99018849D01*
X131852811Y-98553302D01*
X131470725Y-98298000D01*
X131852811Y-98042698D01*
X132163880Y-97577151D01*
X132235146Y-97218873D01*
X132386757Y-97585800D01*
X132579091Y-97778470D01*
X132278233Y-98228736D01*
X132169000Y-98777887D01*
X132169000Y-98834113D01*
X132278233Y-99383264D01*
X132589302Y-99848811D01*
X133054849Y-100159880D01*
X133604000Y-100269113D01*
X134153151Y-100159880D01*
X134618698Y-99848811D01*
X134929767Y-99383264D01*
X135039000Y-98834113D01*
X135039000Y-98777887D01*
X135471000Y-98777887D01*
X135471000Y-98834113D01*
X135580233Y-99383264D01*
X135891302Y-99848811D01*
X136356849Y-100159880D01*
X136906000Y-100269113D01*
X137455151Y-100159880D01*
X137920698Y-99848811D01*
X138231767Y-99383264D01*
X138341000Y-98834113D01*
X138341000Y-98777887D01*
X138231767Y-98228736D01*
X137920698Y-97763189D01*
X137455151Y-97452120D01*
X136906000Y-97342887D01*
X136356849Y-97452120D01*
X135891302Y-97763189D01*
X135580233Y-98228736D01*
X135471000Y-98777887D01*
X135039000Y-98777887D01*
X134929767Y-98228736D01*
X134628923Y-97778492D01*
X134819824Y-97587923D01*
X135004157Y-97144000D01*
X148058560Y-97144000D01*
X148058560Y-98944000D01*
X148102838Y-99179317D01*
X148241910Y-99395441D01*
X148454110Y-99540431D01*
X148706000Y-99591440D01*
X150506000Y-99591440D01*
X150741317Y-99547162D01*
X150957441Y-99408090D01*
X151102431Y-99195890D01*
X151112766Y-99144854D01*
X151238424Y-99281966D01*
X151781258Y-99535046D01*
X152019000Y-99414997D01*
X152019000Y-98171000D01*
X151999000Y-98171000D01*
X151999000Y-97917000D01*
X152019000Y-97917000D01*
X152019000Y-96673003D01*
X152273000Y-96673003D01*
X152273000Y-97917000D01*
X152293000Y-97917000D01*
X152293000Y-98171000D01*
X152273000Y-98171000D01*
X152273000Y-99414997D01*
X152510742Y-99535046D01*
X153053576Y-99281966D01*
X153411499Y-98891418D01*
X153570519Y-99129409D01*
X154068509Y-99462155D01*
X154655928Y-99579000D01*
X154716072Y-99579000D01*
X155303491Y-99462155D01*
X155801481Y-99129409D01*
X156134227Y-98631419D01*
X156251072Y-98044000D01*
X156134227Y-97456581D01*
X155801481Y-96958591D01*
X155303491Y-96625845D01*
X154716072Y-96509000D01*
X154655928Y-96509000D01*
X154068509Y-96625845D01*
X153570519Y-96958591D01*
X153411499Y-97196582D01*
X153053576Y-96806034D01*
X152510742Y-96552954D01*
X152273000Y-96673003D01*
X152019000Y-96673003D01*
X151781258Y-96552954D01*
X151238424Y-96806034D01*
X151115156Y-96940538D01*
X151109162Y-96908683D01*
X150970090Y-96692559D01*
X150757890Y-96547569D01*
X150506000Y-96496560D01*
X148706000Y-96496560D01*
X148470683Y-96540838D01*
X148254559Y-96679910D01*
X148109569Y-96892110D01*
X148058560Y-97144000D01*
X135004157Y-97144000D01*
X135038750Y-97060691D01*
X135039248Y-96489813D01*
X134821243Y-95962200D01*
X134417923Y-95558176D01*
X134336069Y-95524187D01*
X134415800Y-95491243D01*
X134819824Y-95087923D01*
X135038750Y-94560691D01*
X135039248Y-93989813D01*
X134821243Y-93462200D01*
X134640858Y-93281500D01*
X143942060Y-93281500D01*
X143942060Y-94678500D01*
X143986338Y-94913817D01*
X144125410Y-95129941D01*
X144337610Y-95274931D01*
X144589500Y-95325940D01*
X145986500Y-95325940D01*
X146221817Y-95281662D01*
X146437941Y-95142590D01*
X146582931Y-94930390D01*
X146633940Y-94678500D01*
X146633940Y-93281500D01*
X146589662Y-93046183D01*
X146450590Y-92830059D01*
X146238390Y-92685069D01*
X145986500Y-92634060D01*
X144589500Y-92634060D01*
X144354183Y-92678338D01*
X144138059Y-92817410D01*
X143993069Y-93029610D01*
X143942060Y-93281500D01*
X134640858Y-93281500D01*
X134417923Y-93058176D01*
X133890691Y-92839250D01*
X133319813Y-92838752D01*
X132792200Y-93056757D01*
X132388176Y-93460077D01*
X132169250Y-93987309D01*
X132168752Y-94558187D01*
X132386757Y-95085800D01*
X132790077Y-95489824D01*
X132871931Y-95523813D01*
X132792200Y-95556757D01*
X132388176Y-95960077D01*
X132169250Y-96487309D01*
X132169234Y-96505765D01*
X132163880Y-96478849D01*
X131852811Y-96013302D01*
X131387264Y-95702233D01*
X130838113Y-95593000D01*
X130781887Y-95593000D01*
X130232736Y-95702233D01*
X129767189Y-96013302D01*
X129466694Y-96463024D01*
X129315401Y-96236599D01*
X127791401Y-94712599D01*
X127544839Y-94547852D01*
X127320515Y-94503231D01*
X127419000Y-94008113D01*
X127419000Y-93951887D01*
X127309767Y-93402736D01*
X126998698Y-92937189D01*
X126533151Y-92626120D01*
X125984000Y-92516887D01*
X125434849Y-92626120D01*
X124969302Y-92937189D01*
X124658233Y-93402736D01*
X124549000Y-93951887D01*
X124549000Y-94008113D01*
X124644853Y-94490000D01*
X121472802Y-94490000D01*
X121159688Y-94176886D01*
X121200493Y-93971745D01*
X121853861Y-93971745D01*
X121927995Y-94217864D01*
X122465223Y-94410965D01*
X123035454Y-94383778D01*
X123436005Y-94217864D01*
X123510139Y-93971745D01*
X122682000Y-93143605D01*
X121853861Y-93971745D01*
X121200493Y-93971745D01*
X121224113Y-93853000D01*
X121114880Y-93303849D01*
X120803811Y-92838302D01*
X120667502Y-92747223D01*
X121235035Y-92747223D01*
X121262222Y-93317454D01*
X121428136Y-93718005D01*
X121674255Y-93792139D01*
X122502395Y-92964000D01*
X122861605Y-92964000D01*
X123689745Y-93792139D01*
X123935864Y-93718005D01*
X124128965Y-93180777D01*
X124101778Y-92610546D01*
X123935864Y-92209995D01*
X123689745Y-92135861D01*
X122861605Y-92964000D01*
X122502395Y-92964000D01*
X121674255Y-92135861D01*
X121428136Y-92209995D01*
X121235035Y-92747223D01*
X120667502Y-92747223D01*
X120338264Y-92527233D01*
X119789113Y-92418000D01*
X119732887Y-92418000D01*
X119183736Y-92527233D01*
X118718189Y-92838302D01*
X118407120Y-93303849D01*
X118297887Y-93853000D01*
X118407120Y-94402151D01*
X118718189Y-94867698D01*
X119100275Y-95123000D01*
X118718189Y-95378302D01*
X118549526Y-95630724D01*
X117346000Y-94427198D01*
X117346000Y-86365995D01*
X117826641Y-86461600D01*
X117885359Y-86461600D01*
X118458848Y-86347526D01*
X118945029Y-86022670D01*
X119001000Y-85938904D01*
X119001000Y-89312354D01*
X118949200Y-89333757D01*
X118545176Y-89737077D01*
X118326250Y-90264309D01*
X118325752Y-90835187D01*
X118543757Y-91362800D01*
X118947077Y-91766824D01*
X119474309Y-91985750D01*
X120045187Y-91986248D01*
X120572800Y-91768243D01*
X120976824Y-91364923D01*
X121195750Y-90837691D01*
X121195828Y-90748187D01*
X121246752Y-90748187D01*
X121464757Y-91275800D01*
X121868077Y-91679824D01*
X121934544Y-91707423D01*
X121927995Y-91710136D01*
X121853861Y-91956255D01*
X122682000Y-92784395D01*
X123510139Y-91956255D01*
X123436005Y-91710136D01*
X123429517Y-91707804D01*
X123493800Y-91681243D01*
X123608242Y-91567000D01*
X127314887Y-91567000D01*
X127424120Y-92116151D01*
X127735189Y-92581698D01*
X128200736Y-92892767D01*
X128749887Y-93002000D01*
X128806113Y-93002000D01*
X129355264Y-92892767D01*
X129820811Y-92581698D01*
X130131880Y-92116151D01*
X130241113Y-91567000D01*
X130131880Y-91017849D01*
X129820811Y-90552302D01*
X129416297Y-90282014D01*
X129633134Y-90179389D01*
X130009041Y-89764423D01*
X130169904Y-89376039D01*
X130047915Y-89154000D01*
X128905000Y-89154000D01*
X128905000Y-89174000D01*
X128651000Y-89174000D01*
X128651000Y-89154000D01*
X127508085Y-89154000D01*
X127386096Y-89376039D01*
X127546959Y-89764423D01*
X127922866Y-90179389D01*
X128139703Y-90282014D01*
X127735189Y-90552302D01*
X127424120Y-91017849D01*
X127314887Y-91567000D01*
X123608242Y-91567000D01*
X123897824Y-91277923D01*
X124116750Y-90750691D01*
X124117248Y-90179813D01*
X123899243Y-89652200D01*
X123495923Y-89248176D01*
X122968691Y-89029250D01*
X122397813Y-89028752D01*
X121870200Y-89246757D01*
X121466176Y-89650077D01*
X121247250Y-90177309D01*
X121246752Y-90748187D01*
X121195828Y-90748187D01*
X121196248Y-90266813D01*
X120978243Y-89739200D01*
X120574923Y-89335176D01*
X120521000Y-89312785D01*
X120521000Y-86644187D01*
X124548752Y-86644187D01*
X124766757Y-87171800D01*
X125170077Y-87575824D01*
X125697309Y-87794750D01*
X126268187Y-87795248D01*
X126795800Y-87577243D01*
X127199824Y-87173923D01*
X127370003Y-86764087D01*
X127424120Y-87036151D01*
X127735189Y-87501698D01*
X128139703Y-87771986D01*
X127922866Y-87874611D01*
X127546959Y-88289577D01*
X127386096Y-88677961D01*
X127508085Y-88900000D01*
X128651000Y-88900000D01*
X128651000Y-88880000D01*
X128905000Y-88880000D01*
X128905000Y-88900000D01*
X130047915Y-88900000D01*
X130169904Y-88677961D01*
X130009041Y-88289577D01*
X129633134Y-87874611D01*
X129416297Y-87771986D01*
X129820811Y-87501698D01*
X130131880Y-87036151D01*
X130241113Y-86487000D01*
X130131880Y-85937849D01*
X129820811Y-85472302D01*
X129676535Y-85375899D01*
X129813317Y-85350162D01*
X130029441Y-85211090D01*
X130174431Y-84998890D01*
X130225440Y-84747000D01*
X130225440Y-83947000D01*
X134934887Y-83947000D01*
X135044120Y-84496151D01*
X135355189Y-84961698D01*
X135737275Y-85217000D01*
X135355189Y-85472302D01*
X135044120Y-85937849D01*
X134934887Y-86487000D01*
X135044120Y-87036151D01*
X135355189Y-87501698D01*
X135737275Y-87757000D01*
X135355189Y-88012302D01*
X135044120Y-88477849D01*
X134934887Y-89027000D01*
X135044120Y-89576151D01*
X135355189Y-90041698D01*
X135737275Y-90297000D01*
X135355189Y-90552302D01*
X135044120Y-91017849D01*
X134934887Y-91567000D01*
X135044120Y-92116151D01*
X135355189Y-92581698D01*
X135820736Y-92892767D01*
X136369887Y-93002000D01*
X136426113Y-93002000D01*
X136975264Y-92892767D01*
X137440811Y-92581698D01*
X137751880Y-92116151D01*
X137861113Y-91567000D01*
X137751880Y-91017849D01*
X137440811Y-90552302D01*
X137058725Y-90297000D01*
X137440811Y-90041698D01*
X137751880Y-89576151D01*
X137861113Y-89027000D01*
X137792732Y-88683223D01*
X138285035Y-88683223D01*
X138312222Y-89253454D01*
X138478136Y-89654005D01*
X138724255Y-89728139D01*
X139552395Y-88900000D01*
X138724255Y-88071861D01*
X138478136Y-88145995D01*
X138285035Y-88683223D01*
X137792732Y-88683223D01*
X137751880Y-88477849D01*
X137440811Y-88012302D01*
X137261149Y-87892255D01*
X138903861Y-87892255D01*
X139732000Y-88720395D01*
X139746142Y-88706252D01*
X139925748Y-88885858D01*
X139911605Y-88900000D01*
X139925748Y-88914143D01*
X139746142Y-89093748D01*
X139732000Y-89079605D01*
X138903861Y-89907745D01*
X138977995Y-90153864D01*
X139515223Y-90346965D01*
X140085454Y-90319778D01*
X140476947Y-90157616D01*
X140680110Y-90296431D01*
X140932000Y-90347440D01*
X142532000Y-90347440D01*
X142767317Y-90303162D01*
X142983441Y-90164090D01*
X143128431Y-89951890D01*
X143179440Y-89700000D01*
X143179440Y-88100000D01*
X143135162Y-87864683D01*
X142996090Y-87648559D01*
X142783890Y-87503569D01*
X142532000Y-87452560D01*
X140932000Y-87452560D01*
X140696683Y-87496838D01*
X140480559Y-87635910D01*
X140476023Y-87642548D01*
X139948777Y-87453035D01*
X139378546Y-87480222D01*
X138977995Y-87646136D01*
X138903861Y-87892255D01*
X137261149Y-87892255D01*
X137058725Y-87757000D01*
X137440811Y-87501698D01*
X137751880Y-87036151D01*
X137833844Y-86624086D01*
X143954269Y-86624086D01*
X144156854Y-87114380D01*
X144531647Y-87489827D01*
X145021587Y-87693268D01*
X145552086Y-87693731D01*
X146042380Y-87491146D01*
X146417827Y-87116353D01*
X146621268Y-86626413D01*
X146621731Y-86095914D01*
X146419146Y-85605620D01*
X146044353Y-85230173D01*
X145554413Y-85026732D01*
X145023914Y-85026269D01*
X144533620Y-85228854D01*
X144158173Y-85603647D01*
X143954732Y-86093587D01*
X143954269Y-86624086D01*
X137833844Y-86624086D01*
X137861113Y-86487000D01*
X137751880Y-85937849D01*
X137440811Y-85472302D01*
X137058725Y-85217000D01*
X137440811Y-84961698D01*
X137751880Y-84496151D01*
X137861113Y-83947000D01*
X137751880Y-83397849D01*
X137440811Y-82932302D01*
X136975264Y-82621233D01*
X136426113Y-82512000D01*
X136369887Y-82512000D01*
X135820736Y-82621233D01*
X135355189Y-82932302D01*
X135044120Y-83397849D01*
X134934887Y-83947000D01*
X130225440Y-83947000D01*
X130225440Y-83147000D01*
X130181162Y-82911683D01*
X130042090Y-82695559D01*
X129829890Y-82550569D01*
X129578000Y-82499560D01*
X127978000Y-82499560D01*
X127742683Y-82543838D01*
X127526559Y-82682910D01*
X127381569Y-82895110D01*
X127330560Y-83147000D01*
X127330560Y-84747000D01*
X127374838Y-84982317D01*
X127513910Y-85198441D01*
X127726110Y-85343431D01*
X127881089Y-85374815D01*
X127735189Y-85472302D01*
X127424120Y-85937849D01*
X127404012Y-86038939D01*
X127201243Y-85548200D01*
X126797923Y-85144176D01*
X126270691Y-84925250D01*
X125699813Y-84924752D01*
X125172200Y-85142757D01*
X124768176Y-85546077D01*
X124549250Y-86073309D01*
X124548752Y-86644187D01*
X120521000Y-86644187D01*
X120521000Y-82367675D01*
X138200000Y-82367675D01*
X138200000Y-82732325D01*
X138314181Y-83306350D01*
X138639340Y-83792985D01*
X139125975Y-84118144D01*
X139700000Y-84232325D01*
X140274025Y-84118144D01*
X140760660Y-83792985D01*
X140966445Y-83485007D01*
X141339143Y-83900793D01*
X141867240Y-84154131D01*
X141880754Y-84156346D01*
X142113000Y-84035224D01*
X142113000Y-82677000D01*
X142093000Y-82677000D01*
X142093000Y-82423000D01*
X142113000Y-82423000D01*
X142113000Y-81064776D01*
X142367000Y-81064776D01*
X142367000Y-82423000D01*
X142387000Y-82423000D01*
X142387000Y-82677000D01*
X142367000Y-82677000D01*
X142367000Y-84035224D01*
X142599246Y-84156346D01*
X142612760Y-84154131D01*
X143140857Y-83900793D01*
X143297799Y-83725707D01*
X143311838Y-83800317D01*
X143450910Y-84016441D01*
X143663110Y-84161431D01*
X143915000Y-84212440D01*
X145645000Y-84212440D01*
X145880317Y-84168162D01*
X146096441Y-84029090D01*
X146241431Y-83816890D01*
X146292440Y-83565000D01*
X146292440Y-81535000D01*
X146264028Y-81384000D01*
X149714275Y-81384000D01*
X149895822Y-82296700D01*
X150412825Y-83070450D01*
X151186575Y-83587453D01*
X152099275Y-83769000D01*
X152192725Y-83769000D01*
X153105425Y-83587453D01*
X153879175Y-83070450D01*
X154396178Y-82296700D01*
X154577725Y-81384000D01*
X154396178Y-80471300D01*
X153879175Y-79697550D01*
X153105425Y-79180547D01*
X152192725Y-78999000D01*
X152099275Y-78999000D01*
X151186575Y-79180547D01*
X150412825Y-79697550D01*
X149895822Y-80471300D01*
X149714275Y-81384000D01*
X146264028Y-81384000D01*
X146248162Y-81299683D01*
X146109090Y-81083559D01*
X145896890Y-80938569D01*
X145645000Y-80887560D01*
X143915000Y-80887560D01*
X143679683Y-80931838D01*
X143463559Y-81070910D01*
X143318569Y-81283110D01*
X143299679Y-81376391D01*
X143140857Y-81199207D01*
X142612760Y-80945869D01*
X142599246Y-80943654D01*
X142367000Y-81064776D01*
X142113000Y-81064776D01*
X141880754Y-80943654D01*
X141867240Y-80945869D01*
X141339143Y-81199207D01*
X140966445Y-81614993D01*
X140760660Y-81307015D01*
X140274025Y-80981856D01*
X139700000Y-80867675D01*
X139125975Y-80981856D01*
X138639340Y-81307015D01*
X138314181Y-81793650D01*
X138200000Y-82367675D01*
X120521000Y-82367675D01*
X120521000Y-81153000D01*
X120463148Y-80862161D01*
X120298401Y-80615599D01*
X120200802Y-80518000D01*
X127314887Y-80518000D01*
X127424120Y-81067151D01*
X127735189Y-81532698D01*
X128200736Y-81843767D01*
X128749887Y-81953000D01*
X128806113Y-81953000D01*
X129355264Y-81843767D01*
X129820811Y-81532698D01*
X130131880Y-81067151D01*
X130184584Y-80802187D01*
X134962752Y-80802187D01*
X135180757Y-81329800D01*
X135584077Y-81733824D01*
X136111309Y-81952750D01*
X136682187Y-81953248D01*
X137209800Y-81735243D01*
X137613824Y-81331923D01*
X137832750Y-80804691D01*
X137833248Y-80233813D01*
X137615243Y-79706200D01*
X137211923Y-79302176D01*
X136684691Y-79083250D01*
X136113813Y-79082752D01*
X135586200Y-79300757D01*
X135182176Y-79704077D01*
X134963250Y-80231309D01*
X134962752Y-80802187D01*
X130184584Y-80802187D01*
X130241113Y-80518000D01*
X130131880Y-79968849D01*
X129820811Y-79503302D01*
X129355264Y-79192233D01*
X128806113Y-79083000D01*
X128749887Y-79083000D01*
X128200736Y-79192233D01*
X127735189Y-79503302D01*
X127424120Y-79968849D01*
X127314887Y-80518000D01*
X120200802Y-80518000D01*
X119663401Y-79980599D01*
X119416839Y-79815852D01*
X119126000Y-79758000D01*
X112522000Y-79758000D01*
X112231161Y-79815852D01*
X111984599Y-79980599D01*
X110206599Y-81758599D01*
X110041852Y-82005161D01*
X109984000Y-82296000D01*
X109984000Y-90155392D01*
X109921139Y-90218253D01*
X109847005Y-89972136D01*
X109309777Y-89779035D01*
X108739546Y-89806222D01*
X108338995Y-89972136D01*
X108264861Y-90218255D01*
X109093000Y-91046395D01*
X109107142Y-91032252D01*
X109286748Y-91211858D01*
X109272605Y-91226000D01*
X109286748Y-91240142D01*
X109107142Y-91419748D01*
X109093000Y-91405605D01*
X108264861Y-92233745D01*
X108338995Y-92479864D01*
X108345483Y-92482196D01*
X108281200Y-92508757D01*
X107877176Y-92912077D01*
X107658250Y-93439309D01*
X107657752Y-94010187D01*
X107875757Y-94537800D01*
X108279077Y-94941824D01*
X108414364Y-94998000D01*
X104652110Y-94998000D01*
X104668380Y-94973651D01*
X104777613Y-94424500D01*
X104668380Y-93875349D01*
X104357311Y-93409802D01*
X103975225Y-93154500D01*
X104357311Y-92899198D01*
X104668380Y-92433651D01*
X104777613Y-91884500D01*
X104668380Y-91335349D01*
X104450470Y-91009223D01*
X107646035Y-91009223D01*
X107673222Y-91579454D01*
X107839136Y-91980005D01*
X108085255Y-92054139D01*
X108913395Y-91226000D01*
X108085255Y-90397861D01*
X107839136Y-90471995D01*
X107646035Y-91009223D01*
X104450470Y-91009223D01*
X104357311Y-90869802D01*
X103975225Y-90614500D01*
X104357311Y-90359198D01*
X104668380Y-89893651D01*
X104777613Y-89344500D01*
X104668380Y-88795349D01*
X104357311Y-88329802D01*
X103891764Y-88018733D01*
X103342613Y-87909500D01*
X103286387Y-87909500D01*
X102737236Y-88018733D01*
X102271689Y-88329802D01*
X101960620Y-88795349D01*
X101851387Y-89344500D01*
X101960620Y-89893651D01*
X102271689Y-90359198D01*
X102653775Y-90614500D01*
X102271689Y-90869802D01*
X101960620Y-91335349D01*
X101851387Y-91884500D01*
X101960620Y-92433651D01*
X102271689Y-92899198D01*
X102653775Y-93154500D01*
X102271689Y-93409802D01*
X101960620Y-93875349D01*
X101851387Y-94424500D01*
X101960620Y-94973651D01*
X101976890Y-94998000D01*
X97032110Y-94998000D01*
X97048380Y-94973651D01*
X97157613Y-94424500D01*
X97048380Y-93875349D01*
X96737311Y-93409802D01*
X96355225Y-93154500D01*
X96737311Y-92899198D01*
X97048380Y-92433651D01*
X97157613Y-91884500D01*
X97048380Y-91335349D01*
X96737311Y-90869802D01*
X96332797Y-90599514D01*
X96549634Y-90496889D01*
X96925541Y-90081923D01*
X97086404Y-89693539D01*
X96964415Y-89471500D01*
X95821500Y-89471500D01*
X95821500Y-89491500D01*
X95567500Y-89491500D01*
X95567500Y-89471500D01*
X95547500Y-89471500D01*
X95547500Y-89217500D01*
X95567500Y-89217500D01*
X95567500Y-88073871D01*
X95821500Y-88073871D01*
X95821500Y-89217500D01*
X96964415Y-89217500D01*
X97086404Y-88995461D01*
X96925541Y-88607077D01*
X96549634Y-88192111D01*
X96043541Y-87952586D01*
X95821500Y-88073871D01*
X95567500Y-88073871D01*
X95345459Y-87952586D01*
X94839366Y-88192111D01*
X94463459Y-88607077D01*
X94361000Y-88854452D01*
X94361000Y-86360000D01*
X96326887Y-86360000D01*
X96436120Y-86909151D01*
X96747189Y-87374698D01*
X97212736Y-87685767D01*
X97761887Y-87795000D01*
X97818113Y-87795000D01*
X98367264Y-87685767D01*
X98832811Y-87374698D01*
X99143880Y-86909151D01*
X99196584Y-86644187D01*
X103974752Y-86644187D01*
X104192757Y-87171800D01*
X104596077Y-87575824D01*
X105123309Y-87794750D01*
X105694187Y-87795248D01*
X106221800Y-87577243D01*
X106625824Y-87173923D01*
X106844750Y-86646691D01*
X106845248Y-86075813D01*
X106627243Y-85548200D01*
X106223923Y-85144176D01*
X105696691Y-84925250D01*
X105125813Y-84924752D01*
X104598200Y-85142757D01*
X104194176Y-85546077D01*
X103975250Y-86073309D01*
X103974752Y-86644187D01*
X99196584Y-86644187D01*
X99253113Y-86360000D01*
X99143880Y-85810849D01*
X98832811Y-85345302D01*
X98367264Y-85034233D01*
X97818113Y-84925000D01*
X97761887Y-84925000D01*
X97212736Y-85034233D01*
X96747189Y-85345302D01*
X96436120Y-85810849D01*
X96326887Y-86360000D01*
X94361000Y-86360000D01*
X94361000Y-80265000D01*
X97547560Y-80265000D01*
X97547560Y-82295000D01*
X97591838Y-82530317D01*
X97730910Y-82746441D01*
X97943110Y-82891431D01*
X98195000Y-82942440D01*
X99925000Y-82942440D01*
X100160317Y-82898162D01*
X100376441Y-82759090D01*
X100521431Y-82546890D01*
X100529311Y-82507976D01*
X100539340Y-82522985D01*
X101025975Y-82848144D01*
X101600000Y-82962325D01*
X102174025Y-82848144D01*
X102660660Y-82522985D01*
X102866445Y-82215007D01*
X103239143Y-82630793D01*
X103767240Y-82884131D01*
X103780754Y-82886346D01*
X104013000Y-82765224D01*
X104013000Y-81407000D01*
X104267000Y-81407000D01*
X104267000Y-82765224D01*
X104499246Y-82886346D01*
X104512760Y-82884131D01*
X105040857Y-82630793D01*
X105431807Y-82194645D01*
X105626091Y-81642087D01*
X105482222Y-81407000D01*
X104267000Y-81407000D01*
X104013000Y-81407000D01*
X103993000Y-81407000D01*
X103993000Y-81153000D01*
X104013000Y-81153000D01*
X104013000Y-79794776D01*
X104267000Y-79794776D01*
X104267000Y-81153000D01*
X105482222Y-81153000D01*
X105626091Y-80917913D01*
X105431807Y-80365355D01*
X105040857Y-79929207D01*
X104512760Y-79675869D01*
X104499246Y-79673654D01*
X104267000Y-79794776D01*
X104013000Y-79794776D01*
X103780754Y-79673654D01*
X103767240Y-79675869D01*
X103239143Y-79929207D01*
X102866445Y-80344993D01*
X102660660Y-80037015D01*
X102174025Y-79711856D01*
X101600000Y-79597675D01*
X101025975Y-79711856D01*
X100539340Y-80037015D01*
X100531695Y-80048457D01*
X100528162Y-80029683D01*
X100389090Y-79813559D01*
X100176890Y-79668569D01*
X99925000Y-79617560D01*
X98195000Y-79617560D01*
X97959683Y-79661838D01*
X97743559Y-79800910D01*
X97598569Y-80013110D01*
X97547560Y-80265000D01*
X94361000Y-80265000D01*
X94361000Y-78105000D01*
X157607000Y-78105000D01*
X157607000Y-121539000D01*
G36*
X128018000Y-97088802D02*
X128018000Y-103378000D01*
X128075852Y-103668839D01*
X128240599Y-103915401D01*
X129439675Y-105114477D01*
X129456120Y-105197151D01*
X129767189Y-105662698D01*
X130149275Y-105918000D01*
X129767189Y-106173302D01*
X129597005Y-106428000D01*
X127060802Y-106428000D01*
X126744000Y-106111198D01*
X126744000Y-102616000D01*
X126686148Y-102325161D01*
X126521401Y-102078599D01*
X124743401Y-100300599D01*
X124496839Y-100135852D01*
X124491698Y-100134829D01*
X124581904Y-99917039D01*
X124459915Y-99695000D01*
X123317000Y-99695000D01*
X123317000Y-99715000D01*
X123063000Y-99715000D01*
X123063000Y-99695000D01*
X123043000Y-99695000D01*
X123043000Y-99441000D01*
X123063000Y-99441000D01*
X123063000Y-99421000D01*
X123317000Y-99421000D01*
X123317000Y-99441000D01*
X124459915Y-99441000D01*
X124581904Y-99218961D01*
X124421041Y-98830577D01*
X124083410Y-98457864D01*
X124225317Y-98431162D01*
X124441441Y-98292090D01*
X124586431Y-98079890D01*
X124637440Y-97828000D01*
X124637440Y-96228000D01*
X124596420Y-96010000D01*
X126939198Y-96010000D01*
X128018000Y-97088802D01*
X128018000Y-97088802D01*
G37*
X128018000Y-97088802D02*
X128018000Y-103378000D01*
X128075852Y-103668839D01*
X128240599Y-103915401D01*
X129439675Y-105114477D01*
X129456120Y-105197151D01*
X129767189Y-105662698D01*
X130149275Y-105918000D01*
X129767189Y-106173302D01*
X129597005Y-106428000D01*
X127060802Y-106428000D01*
X126744000Y-106111198D01*
X126744000Y-102616000D01*
X126686148Y-102325161D01*
X126521401Y-102078599D01*
X124743401Y-100300599D01*
X124496839Y-100135852D01*
X124491698Y-100134829D01*
X124581904Y-99917039D01*
X124459915Y-99695000D01*
X123317000Y-99695000D01*
X123317000Y-99715000D01*
X123063000Y-99715000D01*
X123063000Y-99695000D01*
X123043000Y-99695000D01*
X123043000Y-99441000D01*
X123063000Y-99441000D01*
X123063000Y-99421000D01*
X123317000Y-99421000D01*
X123317000Y-99441000D01*
X124459915Y-99441000D01*
X124581904Y-99218961D01*
X124421041Y-98830577D01*
X124083410Y-98457864D01*
X124225317Y-98431162D01*
X124441441Y-98292090D01*
X124586431Y-98079890D01*
X124637440Y-97828000D01*
X124637440Y-96228000D01*
X124596420Y-96010000D01*
X126939198Y-96010000D01*
X128018000Y-97088802D01*
M02*
