G04 #@! TF.FileFunction,Legend,Top*
%FSLAX46Y46*%
G04 Gerber Fmt 4.6, Leading zero omitted, Abs format (unit mm)*
G04 Created by KiCad (PCBNEW 4.0.7) date 01/29/18 09:34:28*
%MOMM*%
%LPD*%
G01*
G04 APERTURE LIST*
%ADD10C,0.100000*%
%ADD11C,0.120000*%
%ADD12C,0.150000*%
G04 APERTURE END LIST*
D10*
D11*
X104620000Y-107586000D02*
X100520000Y-107586000D01*
X100520000Y-107586000D02*
X100520000Y-120386000D01*
X100520000Y-120386000D02*
X104620000Y-120386000D01*
X104620000Y-120386000D02*
X104620000Y-107586000D01*
X102870000Y-107586000D02*
X102870000Y-108086000D01*
X102870000Y-108086000D02*
X104120000Y-108086000D01*
X104120000Y-108086000D02*
X104120000Y-119886000D01*
X104120000Y-119886000D02*
X102870000Y-119886000D01*
X102870000Y-119886000D02*
X102870000Y-120386000D01*
X102020000Y-107586000D02*
X102020000Y-108586000D01*
X102020000Y-108586000D02*
X100520000Y-108586000D01*
X102020000Y-120386000D02*
X102020000Y-119386000D01*
X102020000Y-119386000D02*
X100520000Y-119386000D01*
X102720000Y-107286000D02*
X100220000Y-107286000D01*
X100220000Y-107286000D02*
X100220000Y-109786000D01*
X126000000Y-95638000D02*
X124230000Y-95638000D01*
X124230000Y-95638000D02*
X124230000Y-116198000D01*
X124230000Y-116198000D02*
X129770000Y-116198000D01*
X129770000Y-116198000D02*
X129770000Y-95638000D01*
X129770000Y-95638000D02*
X128000000Y-95638000D01*
X128000000Y-95638000D02*
G75*
G02X126000000Y-95638000I-1000000J0D01*
G01*
X135798000Y-81498000D02*
X135798000Y-81828000D01*
X135798000Y-81828000D02*
X129378000Y-81828000D01*
X129378000Y-81828000D02*
X129378000Y-81498000D01*
X135798000Y-79538000D02*
X135798000Y-79208000D01*
X135798000Y-79208000D02*
X129378000Y-79208000D01*
X129378000Y-79208000D02*
X129378000Y-79538000D01*
X138426278Y-90079723D02*
G75*
G03X143037580Y-90080000I2305722J1179723D01*
G01*
X138426278Y-87720277D02*
G75*
G02X143037580Y-87720000I2305722J-1179723D01*
G01*
X138426278Y-87720277D02*
G75*
G03X138426420Y-90080000I2305722J-1179723D01*
G01*
X140732000Y-91450000D02*
X140732000Y-86350000D01*
X140692000Y-91450000D02*
X140692000Y-89880000D01*
X140692000Y-87920000D02*
X140692000Y-86350000D01*
X140652000Y-91449000D02*
X140652000Y-89880000D01*
X140652000Y-87920000D02*
X140652000Y-86351000D01*
X140612000Y-91448000D02*
X140612000Y-89880000D01*
X140612000Y-87920000D02*
X140612000Y-86352000D01*
X140572000Y-91446000D02*
X140572000Y-89880000D01*
X140572000Y-87920000D02*
X140572000Y-86354000D01*
X140532000Y-91443000D02*
X140532000Y-89880000D01*
X140532000Y-87920000D02*
X140532000Y-86357000D01*
X140492000Y-91439000D02*
X140492000Y-89880000D01*
X140492000Y-87920000D02*
X140492000Y-86361000D01*
X140452000Y-91435000D02*
X140452000Y-89880000D01*
X140452000Y-87920000D02*
X140452000Y-86365000D01*
X140412000Y-91431000D02*
X140412000Y-89880000D01*
X140412000Y-87920000D02*
X140412000Y-86369000D01*
X140372000Y-91425000D02*
X140372000Y-89880000D01*
X140372000Y-87920000D02*
X140372000Y-86375000D01*
X140332000Y-91419000D02*
X140332000Y-89880000D01*
X140332000Y-87920000D02*
X140332000Y-86381000D01*
X140292000Y-91413000D02*
X140292000Y-89880000D01*
X140292000Y-87920000D02*
X140292000Y-86387000D01*
X140252000Y-91406000D02*
X140252000Y-89880000D01*
X140252000Y-87920000D02*
X140252000Y-86394000D01*
X140212000Y-91398000D02*
X140212000Y-89880000D01*
X140212000Y-87920000D02*
X140212000Y-86402000D01*
X140172000Y-91389000D02*
X140172000Y-89880000D01*
X140172000Y-87920000D02*
X140172000Y-86411000D01*
X140132000Y-91380000D02*
X140132000Y-89880000D01*
X140132000Y-87920000D02*
X140132000Y-86420000D01*
X140092000Y-91370000D02*
X140092000Y-89880000D01*
X140092000Y-87920000D02*
X140092000Y-86430000D01*
X140052000Y-91360000D02*
X140052000Y-89880000D01*
X140052000Y-87920000D02*
X140052000Y-86440000D01*
X140011000Y-91348000D02*
X140011000Y-89880000D01*
X140011000Y-87920000D02*
X140011000Y-86452000D01*
X139971000Y-91336000D02*
X139971000Y-89880000D01*
X139971000Y-87920000D02*
X139971000Y-86464000D01*
X139931000Y-91324000D02*
X139931000Y-89880000D01*
X139931000Y-87920000D02*
X139931000Y-86476000D01*
X139891000Y-91310000D02*
X139891000Y-89880000D01*
X139891000Y-87920000D02*
X139891000Y-86490000D01*
X139851000Y-91296000D02*
X139851000Y-89880000D01*
X139851000Y-87920000D02*
X139851000Y-86504000D01*
X139811000Y-91282000D02*
X139811000Y-89880000D01*
X139811000Y-87920000D02*
X139811000Y-86518000D01*
X139771000Y-91266000D02*
X139771000Y-89880000D01*
X139771000Y-87920000D02*
X139771000Y-86534000D01*
X139731000Y-91250000D02*
X139731000Y-89880000D01*
X139731000Y-87920000D02*
X139731000Y-86550000D01*
X139691000Y-91233000D02*
X139691000Y-89880000D01*
X139691000Y-87920000D02*
X139691000Y-86567000D01*
X139651000Y-91215000D02*
X139651000Y-89880000D01*
X139651000Y-87920000D02*
X139651000Y-86585000D01*
X139611000Y-91196000D02*
X139611000Y-89880000D01*
X139611000Y-87920000D02*
X139611000Y-86604000D01*
X139571000Y-91176000D02*
X139571000Y-89880000D01*
X139571000Y-87920000D02*
X139571000Y-86624000D01*
X139531000Y-91156000D02*
X139531000Y-89880000D01*
X139531000Y-87920000D02*
X139531000Y-86644000D01*
X139491000Y-91134000D02*
X139491000Y-89880000D01*
X139491000Y-87920000D02*
X139491000Y-86666000D01*
X139451000Y-91112000D02*
X139451000Y-89880000D01*
X139451000Y-87920000D02*
X139451000Y-86688000D01*
X139411000Y-91089000D02*
X139411000Y-89880000D01*
X139411000Y-87920000D02*
X139411000Y-86711000D01*
X139371000Y-91065000D02*
X139371000Y-89880000D01*
X139371000Y-87920000D02*
X139371000Y-86735000D01*
X139331000Y-91040000D02*
X139331000Y-89880000D01*
X139331000Y-87920000D02*
X139331000Y-86760000D01*
X139291000Y-91013000D02*
X139291000Y-89880000D01*
X139291000Y-87920000D02*
X139291000Y-86787000D01*
X139251000Y-90986000D02*
X139251000Y-89880000D01*
X139251000Y-87920000D02*
X139251000Y-86814000D01*
X139211000Y-90958000D02*
X139211000Y-89880000D01*
X139211000Y-87920000D02*
X139211000Y-86842000D01*
X139171000Y-90928000D02*
X139171000Y-89880000D01*
X139171000Y-87920000D02*
X139171000Y-86872000D01*
X139131000Y-90897000D02*
X139131000Y-89880000D01*
X139131000Y-87920000D02*
X139131000Y-86903000D01*
X139091000Y-90865000D02*
X139091000Y-89880000D01*
X139091000Y-87920000D02*
X139091000Y-86935000D01*
X139051000Y-90832000D02*
X139051000Y-89880000D01*
X139051000Y-87920000D02*
X139051000Y-86968000D01*
X139011000Y-90797000D02*
X139011000Y-89880000D01*
X139011000Y-87920000D02*
X139011000Y-87003000D01*
X138971000Y-90761000D02*
X138971000Y-89880000D01*
X138971000Y-87920000D02*
X138971000Y-87039000D01*
X138931000Y-90723000D02*
X138931000Y-89880000D01*
X138931000Y-87920000D02*
X138931000Y-87077000D01*
X138891000Y-90683000D02*
X138891000Y-89880000D01*
X138891000Y-87920000D02*
X138891000Y-87117000D01*
X138851000Y-90642000D02*
X138851000Y-89880000D01*
X138851000Y-87920000D02*
X138851000Y-87158000D01*
X138811000Y-90599000D02*
X138811000Y-89880000D01*
X138811000Y-87920000D02*
X138811000Y-87201000D01*
X138771000Y-90554000D02*
X138771000Y-89880000D01*
X138771000Y-87920000D02*
X138771000Y-87246000D01*
X138731000Y-90506000D02*
X138731000Y-87294000D01*
X138691000Y-90456000D02*
X138691000Y-87344000D01*
X138651000Y-90404000D02*
X138651000Y-87396000D01*
X138611000Y-90348000D02*
X138611000Y-87452000D01*
X138571000Y-90290000D02*
X138571000Y-87510000D01*
X138531000Y-90227000D02*
X138531000Y-87573000D01*
X138491000Y-90161000D02*
X138491000Y-87639000D01*
X138451000Y-90089000D02*
X138451000Y-87711000D01*
X138411000Y-90012000D02*
X138411000Y-87788000D01*
X138371000Y-89928000D02*
X138371000Y-87872000D01*
X138331000Y-89834000D02*
X138331000Y-87966000D01*
X138291000Y-89729000D02*
X138291000Y-88071000D01*
X138251000Y-89607000D02*
X138251000Y-88193000D01*
X138211000Y-89459000D02*
X138211000Y-88341000D01*
X138171000Y-89254000D02*
X138171000Y-88546000D01*
X143932000Y-88900000D02*
X142732000Y-88900000D01*
X143332000Y-89550000D02*
X143332000Y-88250000D01*
X103850000Y-106420000D02*
X99430000Y-106420000D01*
X103850000Y-104400000D02*
X99430000Y-104400000D01*
X103850000Y-106420000D02*
X103850000Y-106406000D01*
X103850000Y-104414000D02*
X103850000Y-104400000D01*
X99430000Y-106420000D02*
X99430000Y-106406000D01*
X99430000Y-104414000D02*
X99430000Y-104400000D01*
X107733000Y-94436000D02*
X107733000Y-90516000D01*
X110453000Y-94436000D02*
X110453000Y-90516000D01*
X107733000Y-94436000D02*
X108343000Y-94436000D01*
X109843000Y-94436000D02*
X110453000Y-94436000D01*
X107733000Y-90516000D02*
X108343000Y-90516000D01*
X109843000Y-90516000D02*
X110453000Y-90516000D01*
X121322000Y-93674000D02*
X121322000Y-89754000D01*
X124042000Y-93674000D02*
X124042000Y-89754000D01*
X121322000Y-93674000D02*
X121932000Y-93674000D01*
X123432000Y-93674000D02*
X124042000Y-93674000D01*
X121322000Y-89754000D02*
X121932000Y-89754000D01*
X123432000Y-89754000D02*
X124042000Y-89754000D01*
X132244000Y-97484000D02*
X132244000Y-93564000D01*
X134964000Y-97484000D02*
X134964000Y-93564000D01*
X132244000Y-97484000D02*
X132854000Y-97484000D01*
X134354000Y-97484000D02*
X134964000Y-97484000D01*
X132244000Y-93564000D02*
X132854000Y-93564000D01*
X134354000Y-93564000D02*
X134964000Y-93564000D01*
D12*
X145288000Y-93980000D02*
X145288000Y-93218000D01*
X145288000Y-93218000D02*
X146304000Y-93218000D01*
X146304000Y-93218000D02*
X146304000Y-87122000D01*
X146304000Y-87122000D02*
X145288000Y-87122000D01*
X145288000Y-87122000D02*
X145288000Y-86360000D01*
X145288000Y-87122000D02*
X144272000Y-87122000D01*
X144272000Y-87122000D02*
X144272000Y-93218000D01*
X144272000Y-93218000D02*
X145288000Y-93218000D01*
X146304000Y-92710000D02*
X144272000Y-92710000D01*
X144272000Y-92456000D02*
X146304000Y-92456000D01*
D11*
X146130000Y-79150000D02*
X146130000Y-85200000D01*
X146130000Y-85200000D02*
X138330000Y-85200000D01*
X138330000Y-85200000D02*
X138330000Y-79150000D01*
X138330000Y-79150000D02*
X146130000Y-79150000D01*
X144780000Y-79250000D02*
X144780000Y-80260000D01*
X144780000Y-80260000D02*
X139700000Y-80260000D01*
X139700000Y-80260000D02*
X139700000Y-79250000D01*
X123186000Y-88493000D02*
X107446000Y-88493000D01*
X107446000Y-88493000D02*
X107446000Y-78893000D01*
X107446000Y-78893000D02*
X123186000Y-78893000D01*
X123186000Y-78893000D02*
X123186000Y-88493000D01*
X97710000Y-84680000D02*
X97710000Y-78630000D01*
X97710000Y-78630000D02*
X105510000Y-78630000D01*
X105510000Y-78630000D02*
X105510000Y-84680000D01*
X105510000Y-84680000D02*
X97710000Y-84680000D01*
X99060000Y-84580000D02*
X99060000Y-83570000D01*
X99060000Y-83570000D02*
X104140000Y-83570000D01*
X104140000Y-83570000D02*
X104140000Y-84580000D01*
X119161000Y-91531000D02*
X119161000Y-91861000D01*
X119161000Y-91861000D02*
X112741000Y-91861000D01*
X112741000Y-91861000D02*
X112741000Y-91531000D01*
X119161000Y-89571000D02*
X119161000Y-89241000D01*
X119161000Y-89241000D02*
X112741000Y-89241000D01*
X112741000Y-89241000D02*
X112741000Y-89571000D01*
X135926000Y-105826000D02*
X135596000Y-105826000D01*
X135596000Y-105826000D02*
X135596000Y-99406000D01*
X135596000Y-99406000D02*
X135926000Y-99406000D01*
X137886000Y-105826000D02*
X138216000Y-105826000D01*
X138216000Y-105826000D02*
X138216000Y-99406000D01*
X138216000Y-99406000D02*
X137886000Y-99406000D01*
X132624000Y-105826000D02*
X132294000Y-105826000D01*
X132294000Y-105826000D02*
X132294000Y-99406000D01*
X132294000Y-99406000D02*
X132624000Y-99406000D01*
X134584000Y-105826000D02*
X134914000Y-105826000D01*
X134914000Y-105826000D02*
X134914000Y-99406000D01*
X134914000Y-99406000D02*
X134584000Y-99406000D01*
X126964000Y-86960000D02*
X127294000Y-86960000D01*
X127294000Y-86960000D02*
X127294000Y-93380000D01*
X127294000Y-93380000D02*
X126964000Y-93380000D01*
X125004000Y-86960000D02*
X124674000Y-86960000D01*
X124674000Y-86960000D02*
X124674000Y-93380000D01*
X124674000Y-93380000D02*
X125004000Y-93380000D01*
X104810000Y-87340000D02*
X104810000Y-87670000D01*
X104810000Y-87670000D02*
X98390000Y-87670000D01*
X98390000Y-87670000D02*
X98390000Y-87340000D01*
X104810000Y-85380000D02*
X104810000Y-85050000D01*
X104810000Y-85050000D02*
X98390000Y-85050000D01*
X98390000Y-85050000D02*
X98390000Y-85380000D01*
X147026000Y-94354000D02*
X157266000Y-94354000D01*
X147026000Y-78464000D02*
X157266000Y-78464000D01*
X147026000Y-78464000D02*
X147026000Y-94354000D01*
X157266000Y-78464000D02*
X157266000Y-94354000D01*
X149606000Y-94354000D02*
X149606000Y-96994000D01*
X152146000Y-94354000D02*
X152146000Y-96978000D01*
X154686000Y-94354000D02*
X154686000Y-96978000D01*
D12*
X146086828Y-116977500D02*
G75*
G03X146086828Y-116977500I-423868J0D01*
G01*
X146403804Y-116977500D02*
G75*
G03X146403804Y-116977500I-740844J0D01*
G01*
X139212320Y-117228620D02*
X139212320Y-118430040D01*
X139212320Y-114630200D02*
X139212320Y-114879120D01*
X139212320Y-109628940D02*
X139212320Y-112328960D01*
X139212320Y-107129580D02*
X139212320Y-107378500D01*
X139212320Y-104528600D02*
X139212320Y-104780100D01*
X139212320Y-98927900D02*
X139212320Y-102179100D01*
X146710400Y-118430040D02*
X146710400Y-98927900D01*
X146710400Y-98927900D02*
X139212320Y-98927900D01*
X139212320Y-118430040D02*
X146710400Y-118430040D01*
D11*
X114951000Y-92463000D02*
X113181000Y-92463000D01*
X113181000Y-92463000D02*
X113181000Y-118103000D01*
X113181000Y-118103000D02*
X118721000Y-118103000D01*
X118721000Y-118103000D02*
X118721000Y-92463000D01*
X118721000Y-92463000D02*
X116951000Y-92463000D01*
X116951000Y-92463000D02*
G75*
G02X114951000Y-92463000I-1000000J0D01*
G01*
X131588000Y-82557000D02*
X129818000Y-82557000D01*
X129818000Y-82557000D02*
X129818000Y-92957000D01*
X129818000Y-92957000D02*
X135358000Y-92957000D01*
X135358000Y-92957000D02*
X135358000Y-82557000D01*
X135358000Y-82557000D02*
X133588000Y-82557000D01*
X133588000Y-82557000D02*
G75*
G02X131588000Y-82557000I-1000000J0D01*
G01*
X100504500Y-98354500D02*
X102274500Y-98354500D01*
X102274500Y-98354500D02*
X102274500Y-87954500D01*
X102274500Y-87954500D02*
X96734500Y-87954500D01*
X96734500Y-87954500D02*
X96734500Y-98354500D01*
X96734500Y-98354500D02*
X98504500Y-98354500D01*
X98504500Y-98354500D02*
G75*
G02X100504500Y-98354500I1000000J0D01*
G01*
X110602000Y-99899000D02*
X110602000Y-106149000D01*
X105552000Y-99899000D02*
X105552000Y-106149000D01*
X105552000Y-99899000D02*
G75*
G02X110602000Y-99899000I2525000J0D01*
G01*
X105552000Y-106149000D02*
G75*
G03X110602000Y-106149000I2525000J0D01*
G01*
X107026000Y-119162000D02*
X107026000Y-118832000D01*
X107026000Y-118832000D02*
X113446000Y-118832000D01*
X113446000Y-118832000D02*
X113446000Y-119162000D01*
X107026000Y-121122000D02*
X107026000Y-121452000D01*
X107026000Y-121452000D02*
X113446000Y-121452000D01*
X113446000Y-121452000D02*
X113446000Y-121122000D01*
X103850000Y-101340000D02*
X99430000Y-101340000D01*
X103850000Y-99320000D02*
X99430000Y-99320000D01*
X103850000Y-101340000D02*
X103850000Y-101326000D01*
X103850000Y-99334000D02*
X103850000Y-99320000D01*
X99430000Y-101340000D02*
X99430000Y-101326000D01*
X99430000Y-99334000D02*
X99430000Y-99320000D01*
X155650000Y-102452000D02*
X151730000Y-102452000D01*
X155650000Y-99732000D02*
X151730000Y-99732000D01*
X155650000Y-102452000D02*
X155650000Y-101842000D01*
X155650000Y-100342000D02*
X155650000Y-99732000D01*
X151730000Y-102452000D02*
X151730000Y-101842000D01*
X151730000Y-100342000D02*
X151730000Y-99732000D01*
X147230000Y-109422000D02*
X147230000Y-105502000D01*
X149950000Y-109422000D02*
X149950000Y-105502000D01*
X147230000Y-109422000D02*
X147840000Y-109422000D01*
X149340000Y-109422000D02*
X149950000Y-109422000D01*
X147230000Y-105502000D02*
X147840000Y-105502000D01*
X149340000Y-105502000D02*
X149950000Y-105502000D01*
X147230000Y-104596000D02*
X147230000Y-100676000D01*
X149950000Y-104596000D02*
X149950000Y-100676000D01*
X147230000Y-104596000D02*
X147840000Y-104596000D01*
X149340000Y-104596000D02*
X149950000Y-104596000D01*
X147230000Y-100676000D02*
X147840000Y-100676000D01*
X149340000Y-100676000D02*
X149950000Y-100676000D01*
X110181000Y-115084000D02*
X110181000Y-111484000D01*
X109453795Y-115608184D02*
G75*
G03X110181000Y-115084000I-1122795J2324184D01*
G01*
X107232193Y-115640400D02*
G75*
G02X105731000Y-113284000I1098807J2356400D01*
G01*
X107232193Y-110927600D02*
G75*
G03X105731000Y-113284000I1098807J-2356400D01*
G01*
X109453795Y-110959816D02*
G75*
G02X110181000Y-111484000I-1122795J-2324184D01*
G01*
D12*
X105322381Y-114319333D02*
X106036667Y-114319333D01*
X106179524Y-114366953D01*
X106274762Y-114462191D01*
X106322381Y-114605048D01*
X106322381Y-114700286D01*
X105417619Y-113890762D02*
X105370000Y-113843143D01*
X105322381Y-113747905D01*
X105322381Y-113509809D01*
X105370000Y-113414571D01*
X105417619Y-113366952D01*
X105512857Y-113319333D01*
X105608095Y-113319333D01*
X105750952Y-113366952D01*
X106322381Y-113938381D01*
X106322381Y-113319333D01*
X126238095Y-94090381D02*
X126238095Y-94899905D01*
X126285714Y-94995143D01*
X126333333Y-95042762D01*
X126428571Y-95090381D01*
X126619048Y-95090381D01*
X126714286Y-95042762D01*
X126761905Y-94995143D01*
X126809524Y-94899905D01*
X126809524Y-94090381D01*
X127714286Y-94423714D02*
X127714286Y-95090381D01*
X127476190Y-94042762D02*
X127238095Y-94757048D01*
X127857143Y-94757048D01*
X132421334Y-83280381D02*
X132088000Y-82804190D01*
X131849905Y-83280381D02*
X131849905Y-82280381D01*
X132230858Y-82280381D01*
X132326096Y-82328000D01*
X132373715Y-82375619D01*
X132421334Y-82470857D01*
X132421334Y-82613714D01*
X132373715Y-82708952D01*
X132326096Y-82756571D01*
X132230858Y-82804190D01*
X131849905Y-82804190D01*
X133326096Y-82280381D02*
X132849905Y-82280381D01*
X132802286Y-82756571D01*
X132849905Y-82708952D01*
X132945143Y-82661333D01*
X133183239Y-82661333D01*
X133278477Y-82708952D01*
X133326096Y-82756571D01*
X133373715Y-82851810D01*
X133373715Y-83089905D01*
X133326096Y-83185143D01*
X133278477Y-83232762D01*
X133183239Y-83280381D01*
X132945143Y-83280381D01*
X132849905Y-83232762D01*
X132802286Y-83185143D01*
X140565334Y-93067143D02*
X140517715Y-93114762D01*
X140374858Y-93162381D01*
X140279620Y-93162381D01*
X140136762Y-93114762D01*
X140041524Y-93019524D01*
X139993905Y-92924286D01*
X139946286Y-92733810D01*
X139946286Y-92590952D01*
X139993905Y-92400476D01*
X140041524Y-92305238D01*
X140136762Y-92210000D01*
X140279620Y-92162381D01*
X140374858Y-92162381D01*
X140517715Y-92210000D01*
X140565334Y-92257619D01*
X141517715Y-93162381D02*
X140946286Y-93162381D01*
X141232000Y-93162381D02*
X141232000Y-92162381D01*
X141136762Y-92305238D01*
X141041524Y-92400476D01*
X140946286Y-92448095D01*
X101473334Y-108027143D02*
X101425715Y-108074762D01*
X101282858Y-108122381D01*
X101187620Y-108122381D01*
X101044762Y-108074762D01*
X100949524Y-107979524D01*
X100901905Y-107884286D01*
X100854286Y-107693810D01*
X100854286Y-107550952D01*
X100901905Y-107360476D01*
X100949524Y-107265238D01*
X101044762Y-107170000D01*
X101187620Y-107122381D01*
X101282858Y-107122381D01*
X101425715Y-107170000D01*
X101473334Y-107217619D01*
X101806667Y-107122381D02*
X102425715Y-107122381D01*
X102092381Y-107503333D01*
X102235239Y-107503333D01*
X102330477Y-107550952D01*
X102378096Y-107598571D01*
X102425715Y-107693810D01*
X102425715Y-107931905D01*
X102378096Y-108027143D01*
X102330477Y-108074762D01*
X102235239Y-108122381D01*
X101949524Y-108122381D01*
X101854286Y-108074762D01*
X101806667Y-108027143D01*
X106840143Y-92642666D02*
X106887762Y-92690285D01*
X106935381Y-92833142D01*
X106935381Y-92928380D01*
X106887762Y-93071238D01*
X106792524Y-93166476D01*
X106697286Y-93214095D01*
X106506810Y-93261714D01*
X106363952Y-93261714D01*
X106173476Y-93214095D01*
X106078238Y-93166476D01*
X105983000Y-93071238D01*
X105935381Y-92928380D01*
X105935381Y-92833142D01*
X105983000Y-92690285D01*
X106030619Y-92642666D01*
X105935381Y-91737904D02*
X105935381Y-92214095D01*
X106411571Y-92261714D01*
X106363952Y-92214095D01*
X106316333Y-92118857D01*
X106316333Y-91880761D01*
X106363952Y-91785523D01*
X106411571Y-91737904D01*
X106506810Y-91690285D01*
X106744905Y-91690285D01*
X106840143Y-91737904D01*
X106887762Y-91785523D01*
X106935381Y-91880761D01*
X106935381Y-92118857D01*
X106887762Y-92214095D01*
X106840143Y-92261714D01*
X120429143Y-91880666D02*
X120476762Y-91928285D01*
X120524381Y-92071142D01*
X120524381Y-92166380D01*
X120476762Y-92309238D01*
X120381524Y-92404476D01*
X120286286Y-92452095D01*
X120095810Y-92499714D01*
X119952952Y-92499714D01*
X119762476Y-92452095D01*
X119667238Y-92404476D01*
X119572000Y-92309238D01*
X119524381Y-92166380D01*
X119524381Y-92071142D01*
X119572000Y-91928285D01*
X119619619Y-91880666D01*
X119524381Y-91023523D02*
X119524381Y-91214000D01*
X119572000Y-91309238D01*
X119619619Y-91356857D01*
X119762476Y-91452095D01*
X119952952Y-91499714D01*
X120333905Y-91499714D01*
X120429143Y-91452095D01*
X120476762Y-91404476D01*
X120524381Y-91309238D01*
X120524381Y-91118761D01*
X120476762Y-91023523D01*
X120429143Y-90975904D01*
X120333905Y-90928285D01*
X120095810Y-90928285D01*
X120000571Y-90975904D01*
X119952952Y-91023523D01*
X119905333Y-91118761D01*
X119905333Y-91309238D01*
X119952952Y-91404476D01*
X120000571Y-91452095D01*
X120095810Y-91499714D01*
X131351143Y-95690666D02*
X131398762Y-95738285D01*
X131446381Y-95881142D01*
X131446381Y-95976380D01*
X131398762Y-96119238D01*
X131303524Y-96214476D01*
X131208286Y-96262095D01*
X131017810Y-96309714D01*
X130874952Y-96309714D01*
X130684476Y-96262095D01*
X130589238Y-96214476D01*
X130494000Y-96119238D01*
X130446381Y-95976380D01*
X130446381Y-95881142D01*
X130494000Y-95738285D01*
X130541619Y-95690666D01*
X130446381Y-95357333D02*
X130446381Y-94690666D01*
X131446381Y-95119238D01*
X145740381Y-90908095D02*
X144740381Y-90908095D01*
X144740381Y-90670000D01*
X144788000Y-90527142D01*
X144883238Y-90431904D01*
X144978476Y-90384285D01*
X145168952Y-90336666D01*
X145311810Y-90336666D01*
X145502286Y-90384285D01*
X145597524Y-90431904D01*
X145692762Y-90527142D01*
X145740381Y-90670000D01*
X145740381Y-90908095D01*
X145740381Y-89384285D02*
X145740381Y-89955714D01*
X145740381Y-89670000D02*
X144740381Y-89670000D01*
X144883238Y-89765238D01*
X144978476Y-89860476D01*
X145026095Y-89955714D01*
X146332381Y-82883333D02*
X147046667Y-82883333D01*
X147189524Y-82930953D01*
X147284762Y-83026191D01*
X147332381Y-83169048D01*
X147332381Y-83264286D01*
X147332381Y-81883333D02*
X147332381Y-82454762D01*
X147332381Y-82169048D02*
X146332381Y-82169048D01*
X146475238Y-82264286D01*
X146570476Y-82359524D01*
X146618095Y-82454762D01*
X114522667Y-89375381D02*
X114522667Y-90089667D01*
X114475047Y-90232524D01*
X114379809Y-90327762D01*
X114236952Y-90375381D01*
X114141714Y-90375381D01*
X114903619Y-89375381D02*
X115522667Y-89375381D01*
X115189333Y-89756333D01*
X115332191Y-89756333D01*
X115427429Y-89803952D01*
X115475048Y-89851571D01*
X115522667Y-89946810D01*
X115522667Y-90184905D01*
X115475048Y-90280143D01*
X115427429Y-90327762D01*
X115332191Y-90375381D01*
X115046476Y-90375381D01*
X114951238Y-90327762D01*
X114903619Y-90280143D01*
D11*
X118121715Y-81155381D02*
X117550286Y-81155381D01*
X117836000Y-81155381D02*
X117836000Y-80155381D01*
X117740762Y-80298238D01*
X117645524Y-80393476D01*
X117550286Y-80441095D01*
D12*
X96412381Y-81613333D02*
X97126667Y-81613333D01*
X97269524Y-81660953D01*
X97364762Y-81756191D01*
X97412381Y-81899048D01*
X97412381Y-81994286D01*
X96745714Y-80708571D02*
X97412381Y-80708571D01*
X96364762Y-80946667D02*
X97079048Y-81184762D01*
X97079048Y-80565714D01*
X115784334Y-93313381D02*
X115451000Y-92837190D01*
X115212905Y-93313381D02*
X115212905Y-92313381D01*
X115593858Y-92313381D01*
X115689096Y-92361000D01*
X115736715Y-92408619D01*
X115784334Y-92503857D01*
X115784334Y-92646714D01*
X115736715Y-92741952D01*
X115689096Y-92789571D01*
X115593858Y-92837190D01*
X115212905Y-92837190D01*
X116736715Y-93313381D02*
X116165286Y-93313381D01*
X116451000Y-93313381D02*
X116451000Y-92313381D01*
X116355762Y-92456238D01*
X116260524Y-92551476D01*
X116165286Y-92599095D01*
X135048381Y-102782666D02*
X134572190Y-103116000D01*
X135048381Y-103354095D02*
X134048381Y-103354095D01*
X134048381Y-102973142D01*
X134096000Y-102877904D01*
X134143619Y-102830285D01*
X134238857Y-102782666D01*
X134381714Y-102782666D01*
X134476952Y-102830285D01*
X134524571Y-102877904D01*
X134572190Y-102973142D01*
X134572190Y-103354095D01*
X134143619Y-102401714D02*
X134096000Y-102354095D01*
X134048381Y-102258857D01*
X134048381Y-102020761D01*
X134096000Y-101925523D01*
X134143619Y-101877904D01*
X134238857Y-101830285D01*
X134334095Y-101830285D01*
X134476952Y-101877904D01*
X135048381Y-102449333D01*
X135048381Y-101830285D01*
X131746381Y-102782666D02*
X131270190Y-103116000D01*
X131746381Y-103354095D02*
X130746381Y-103354095D01*
X130746381Y-102973142D01*
X130794000Y-102877904D01*
X130841619Y-102830285D01*
X130936857Y-102782666D01*
X131079714Y-102782666D01*
X131174952Y-102830285D01*
X131222571Y-102877904D01*
X131270190Y-102973142D01*
X131270190Y-103354095D01*
X130746381Y-102449333D02*
X130746381Y-101830285D01*
X131127333Y-102163619D01*
X131127333Y-102020761D01*
X131174952Y-101925523D01*
X131222571Y-101877904D01*
X131317810Y-101830285D01*
X131555905Y-101830285D01*
X131651143Y-101877904D01*
X131698762Y-101925523D01*
X131746381Y-102020761D01*
X131746381Y-102306476D01*
X131698762Y-102401714D01*
X131651143Y-102449333D01*
X128746381Y-90336666D02*
X128270190Y-90670000D01*
X128746381Y-90908095D02*
X127746381Y-90908095D01*
X127746381Y-90527142D01*
X127794000Y-90431904D01*
X127841619Y-90384285D01*
X127936857Y-90336666D01*
X128079714Y-90336666D01*
X128174952Y-90384285D01*
X128222571Y-90431904D01*
X128270190Y-90527142D01*
X128270190Y-90908095D01*
X128079714Y-89479523D02*
X128746381Y-89479523D01*
X127698762Y-89717619D02*
X128413048Y-89955714D01*
X128413048Y-89336666D01*
X101433334Y-89122381D02*
X101100000Y-88646190D01*
X100861905Y-89122381D02*
X100861905Y-88122381D01*
X101242858Y-88122381D01*
X101338096Y-88170000D01*
X101385715Y-88217619D01*
X101433334Y-88312857D01*
X101433334Y-88455714D01*
X101385715Y-88550952D01*
X101338096Y-88598571D01*
X101242858Y-88646190D01*
X100861905Y-88646190D01*
X102004762Y-88550952D02*
X101909524Y-88503333D01*
X101861905Y-88455714D01*
X101814286Y-88360476D01*
X101814286Y-88312857D01*
X101861905Y-88217619D01*
X101909524Y-88170000D01*
X102004762Y-88122381D01*
X102195239Y-88122381D01*
X102290477Y-88170000D01*
X102338096Y-88217619D01*
X102385715Y-88312857D01*
X102385715Y-88360476D01*
X102338096Y-88455714D01*
X102290477Y-88503333D01*
X102195239Y-88550952D01*
X102004762Y-88550952D01*
X101909524Y-88598571D01*
X101861905Y-88646190D01*
X101814286Y-88741429D01*
X101814286Y-88931905D01*
X101861905Y-89027143D01*
X101909524Y-89074762D01*
X102004762Y-89122381D01*
X102195239Y-89122381D01*
X102290477Y-89074762D01*
X102338096Y-89027143D01*
X102385715Y-88931905D01*
X102385715Y-88741429D01*
X102338096Y-88646190D01*
X102290477Y-88598571D01*
X102195239Y-88550952D01*
X151384095Y-76916381D02*
X151384095Y-77725905D01*
X151431714Y-77821143D01*
X151479333Y-77868762D01*
X151574571Y-77916381D01*
X151765048Y-77916381D01*
X151860286Y-77868762D01*
X151907905Y-77821143D01*
X151955524Y-77725905D01*
X151955524Y-76916381D01*
X152955524Y-77916381D02*
X152384095Y-77916381D01*
X152669809Y-77916381D02*
X152669809Y-76916381D01*
X152574571Y-77059238D01*
X152479333Y-77154476D01*
X152384095Y-77202095D01*
X134664381Y-116839905D02*
X135473905Y-116839905D01*
X135569143Y-116792286D01*
X135616762Y-116744667D01*
X135664381Y-116649429D01*
X135664381Y-116458952D01*
X135616762Y-116363714D01*
X135569143Y-116316095D01*
X135473905Y-116268476D01*
X134664381Y-116268476D01*
X134759619Y-115839905D02*
X134712000Y-115792286D01*
X134664381Y-115697048D01*
X134664381Y-115458952D01*
X134712000Y-115363714D01*
X134759619Y-115316095D01*
X134854857Y-115268476D01*
X134950095Y-115268476D01*
X135092952Y-115316095D01*
X135664381Y-115887524D01*
X135664381Y-115268476D01*
X140714381Y-117392285D02*
X140714381Y-117963714D01*
X140714381Y-117678000D02*
X139714381Y-117678000D01*
X139857238Y-117773238D01*
X139952476Y-117868476D01*
X140000095Y-117963714D01*
X144363501Y-103152090D02*
X145363501Y-102818757D01*
X144363501Y-102485423D01*
X145363501Y-102009233D02*
X145315882Y-102104471D01*
X145268263Y-102152090D01*
X145173025Y-102199709D01*
X144887310Y-102199709D01*
X144792072Y-102152090D01*
X144744453Y-102104471D01*
X144696834Y-102009233D01*
X144696834Y-101866375D01*
X144744453Y-101771137D01*
X144792072Y-101723518D01*
X144887310Y-101675899D01*
X145173025Y-101675899D01*
X145268263Y-101723518D01*
X145315882Y-101771137D01*
X145363501Y-101866375D01*
X145363501Y-102009233D01*
X144696834Y-100818756D02*
X145363501Y-100818756D01*
X144696834Y-101247328D02*
X145220644Y-101247328D01*
X145315882Y-101199709D01*
X145363501Y-101104471D01*
X145363501Y-100961613D01*
X145315882Y-100866375D01*
X145268263Y-100818756D01*
X144696834Y-100485423D02*
X144696834Y-100104471D01*
X144363501Y-100342566D02*
X145220644Y-100342566D01*
X145315882Y-100294947D01*
X145363501Y-100199709D01*
X145363501Y-100104471D01*
X144264441Y-115601009D02*
X145264441Y-115267676D01*
X144264441Y-114934342D01*
X145264441Y-114601009D02*
X144597774Y-114601009D01*
X144264441Y-114601009D02*
X144312060Y-114648628D01*
X144359679Y-114601009D01*
X144312060Y-114553390D01*
X144264441Y-114601009D01*
X144359679Y-114601009D01*
X144597774Y-114124819D02*
X145264441Y-114124819D01*
X144693012Y-114124819D02*
X144645393Y-114077200D01*
X144597774Y-113981962D01*
X144597774Y-113839104D01*
X144645393Y-113743866D01*
X144740631Y-113696247D01*
X145264441Y-113696247D01*
X143652017Y-105935123D02*
X143604398Y-105982742D01*
X143461541Y-106030361D01*
X143366303Y-106030361D01*
X143223445Y-105982742D01*
X143128207Y-105887504D01*
X143080588Y-105792266D01*
X143032969Y-105601790D01*
X143032969Y-105458932D01*
X143080588Y-105268456D01*
X143128207Y-105173218D01*
X143223445Y-105077980D01*
X143366303Y-105030361D01*
X143461541Y-105030361D01*
X143604398Y-105077980D01*
X143652017Y-105125599D01*
X144223445Y-106030361D02*
X144128207Y-105982742D01*
X144080588Y-105935123D01*
X144032969Y-105839885D01*
X144032969Y-105554170D01*
X144080588Y-105458932D01*
X144128207Y-105411313D01*
X144223445Y-105363694D01*
X144366303Y-105363694D01*
X144461541Y-105411313D01*
X144509160Y-105458932D01*
X144556779Y-105554170D01*
X144556779Y-105839885D01*
X144509160Y-105935123D01*
X144461541Y-105982742D01*
X144366303Y-106030361D01*
X144223445Y-106030361D01*
X144985350Y-106030361D02*
X144985350Y-105363694D01*
X144985350Y-105458932D02*
X145032969Y-105411313D01*
X145128207Y-105363694D01*
X145271065Y-105363694D01*
X145366303Y-105411313D01*
X145413922Y-105506551D01*
X145413922Y-106030361D01*
X145413922Y-105506551D02*
X145461541Y-105411313D01*
X145556779Y-105363694D01*
X145699636Y-105363694D01*
X145794874Y-105411313D01*
X145842493Y-105506551D01*
X145842493Y-106030361D01*
X143133429Y-103657692D02*
X143133429Y-102895787D01*
X143514381Y-103276739D02*
X142752476Y-103276739D01*
X143133429Y-109159332D02*
X143133429Y-108397427D01*
X143133429Y-113660212D02*
X143133429Y-112898307D01*
X143133429Y-116659952D02*
X143133429Y-115898047D01*
X143514381Y-116278999D02*
X142752476Y-116278999D01*
X115189095Y-90915381D02*
X115189095Y-91724905D01*
X115236714Y-91820143D01*
X115284333Y-91867762D01*
X115379571Y-91915381D01*
X115570048Y-91915381D01*
X115665286Y-91867762D01*
X115712905Y-91820143D01*
X115760524Y-91724905D01*
X115760524Y-90915381D01*
X116141476Y-90915381D02*
X116760524Y-90915381D01*
X116427190Y-91296333D01*
X116570048Y-91296333D01*
X116665286Y-91343952D01*
X116712905Y-91391571D01*
X116760524Y-91486810D01*
X116760524Y-91724905D01*
X116712905Y-91820143D01*
X116665286Y-91867762D01*
X116570048Y-91915381D01*
X116284333Y-91915381D01*
X116189095Y-91867762D01*
X116141476Y-91820143D01*
X131826095Y-81009381D02*
X131826095Y-81818905D01*
X131873714Y-81914143D01*
X131921333Y-81961762D01*
X132016571Y-82009381D01*
X132207048Y-82009381D01*
X132302286Y-81961762D01*
X132349905Y-81914143D01*
X132397524Y-81818905D01*
X132397524Y-81009381D01*
X133349905Y-81009381D02*
X132873714Y-81009381D01*
X132826095Y-81485571D01*
X132873714Y-81437952D01*
X132968952Y-81390333D01*
X133207048Y-81390333D01*
X133302286Y-81437952D01*
X133349905Y-81485571D01*
X133397524Y-81580810D01*
X133397524Y-81818905D01*
X133349905Y-81914143D01*
X133302286Y-81961762D01*
X133207048Y-82009381D01*
X132968952Y-82009381D01*
X132873714Y-81961762D01*
X132826095Y-81914143D01*
X98742595Y-98806881D02*
X98742595Y-99616405D01*
X98790214Y-99711643D01*
X98837833Y-99759262D01*
X98933071Y-99806881D01*
X99123548Y-99806881D01*
X99218786Y-99759262D01*
X99266405Y-99711643D01*
X99314024Y-99616405D01*
X99314024Y-98806881D01*
X99694976Y-98806881D02*
X100361643Y-98806881D01*
X99933071Y-99806881D01*
X111578190Y-103500191D02*
X112054381Y-103500191D01*
X111054381Y-103833524D02*
X111578190Y-103500191D01*
X111054381Y-103166857D01*
X112054381Y-102309714D02*
X112054381Y-102881143D01*
X112054381Y-102595429D02*
X111054381Y-102595429D01*
X111197238Y-102690667D01*
X111292476Y-102785905D01*
X111340095Y-102881143D01*
X110069334Y-118284381D02*
X109736000Y-117808190D01*
X109497905Y-118284381D02*
X109497905Y-117284381D01*
X109878858Y-117284381D01*
X109974096Y-117332000D01*
X110021715Y-117379619D01*
X110069334Y-117474857D01*
X110069334Y-117617714D01*
X110021715Y-117712952D01*
X109974096Y-117760571D01*
X109878858Y-117808190D01*
X109497905Y-117808190D01*
X110545524Y-118284381D02*
X110736000Y-118284381D01*
X110831239Y-118236762D01*
X110878858Y-118189143D01*
X110974096Y-118046286D01*
X111021715Y-117855810D01*
X111021715Y-117474857D01*
X110974096Y-117379619D01*
X110926477Y-117332000D01*
X110831239Y-117284381D01*
X110640762Y-117284381D01*
X110545524Y-117332000D01*
X110497905Y-117379619D01*
X110450286Y-117474857D01*
X110450286Y-117712952D01*
X110497905Y-117808190D01*
X110545524Y-117855810D01*
X110640762Y-117903429D01*
X110831239Y-117903429D01*
X110926477Y-117855810D01*
X110974096Y-117808190D01*
X111021715Y-117712952D01*
X101473334Y-102947143D02*
X101425715Y-102994762D01*
X101282858Y-103042381D01*
X101187620Y-103042381D01*
X101044762Y-102994762D01*
X100949524Y-102899524D01*
X100901905Y-102804286D01*
X100854286Y-102613810D01*
X100854286Y-102470952D01*
X100901905Y-102280476D01*
X100949524Y-102185238D01*
X101044762Y-102090000D01*
X101187620Y-102042381D01*
X101282858Y-102042381D01*
X101425715Y-102090000D01*
X101473334Y-102137619D01*
X101854286Y-102137619D02*
X101901905Y-102090000D01*
X101997143Y-102042381D01*
X102235239Y-102042381D01*
X102330477Y-102090000D01*
X102378096Y-102137619D01*
X102425715Y-102232857D01*
X102425715Y-102328095D01*
X102378096Y-102470952D01*
X101806667Y-103042381D01*
X102425715Y-103042381D01*
X153523334Y-104059143D02*
X153475715Y-104106762D01*
X153332858Y-104154381D01*
X153237620Y-104154381D01*
X153094762Y-104106762D01*
X152999524Y-104011524D01*
X152951905Y-103916286D01*
X152904286Y-103725810D01*
X152904286Y-103582952D01*
X152951905Y-103392476D01*
X152999524Y-103297238D01*
X153094762Y-103202000D01*
X153237620Y-103154381D01*
X153332858Y-103154381D01*
X153475715Y-103202000D01*
X153523334Y-103249619D01*
X154380477Y-103487714D02*
X154380477Y-104154381D01*
X154142381Y-103106762D02*
X153904286Y-103821048D01*
X154523334Y-103821048D01*
X146337143Y-107628666D02*
X146384762Y-107676285D01*
X146432381Y-107819142D01*
X146432381Y-107914380D01*
X146384762Y-108057238D01*
X146289524Y-108152476D01*
X146194286Y-108200095D01*
X146003810Y-108247714D01*
X145860952Y-108247714D01*
X145670476Y-108200095D01*
X145575238Y-108152476D01*
X145480000Y-108057238D01*
X145432381Y-107914380D01*
X145432381Y-107819142D01*
X145480000Y-107676285D01*
X145527619Y-107628666D01*
X145860952Y-107057238D02*
X145813333Y-107152476D01*
X145765714Y-107200095D01*
X145670476Y-107247714D01*
X145622857Y-107247714D01*
X145527619Y-107200095D01*
X145480000Y-107152476D01*
X145432381Y-107057238D01*
X145432381Y-106866761D01*
X145480000Y-106771523D01*
X145527619Y-106723904D01*
X145622857Y-106676285D01*
X145670476Y-106676285D01*
X145765714Y-106723904D01*
X145813333Y-106771523D01*
X145860952Y-106866761D01*
X145860952Y-107057238D01*
X145908571Y-107152476D01*
X145956190Y-107200095D01*
X146051429Y-107247714D01*
X146241905Y-107247714D01*
X146337143Y-107200095D01*
X146384762Y-107152476D01*
X146432381Y-107057238D01*
X146432381Y-106866761D01*
X146384762Y-106771523D01*
X146337143Y-106723904D01*
X146241905Y-106676285D01*
X146051429Y-106676285D01*
X145956190Y-106723904D01*
X145908571Y-106771523D01*
X145860952Y-106866761D01*
X146337143Y-102802666D02*
X146384762Y-102850285D01*
X146432381Y-102993142D01*
X146432381Y-103088380D01*
X146384762Y-103231238D01*
X146289524Y-103326476D01*
X146194286Y-103374095D01*
X146003810Y-103421714D01*
X145860952Y-103421714D01*
X145670476Y-103374095D01*
X145575238Y-103326476D01*
X145480000Y-103231238D01*
X145432381Y-103088380D01*
X145432381Y-102993142D01*
X145480000Y-102850285D01*
X145527619Y-102802666D01*
X146432381Y-102326476D02*
X146432381Y-102136000D01*
X146384762Y-102040761D01*
X146337143Y-101993142D01*
X146194286Y-101897904D01*
X146003810Y-101850285D01*
X145622857Y-101850285D01*
X145527619Y-101897904D01*
X145480000Y-101945523D01*
X145432381Y-102040761D01*
X145432381Y-102231238D01*
X145480000Y-102326476D01*
X145527619Y-102374095D01*
X145622857Y-102421714D01*
X145860952Y-102421714D01*
X145956190Y-102374095D01*
X146003810Y-102326476D01*
X146051429Y-102231238D01*
X146051429Y-102040761D01*
X146003810Y-101945523D01*
X145956190Y-101897904D01*
X145860952Y-101850285D01*
X104223381Y-114045905D02*
X105032905Y-114045905D01*
X105128143Y-113998286D01*
X105175762Y-113950667D01*
X105223381Y-113855429D01*
X105223381Y-113664952D01*
X105175762Y-113569714D01*
X105128143Y-113522095D01*
X105032905Y-113474476D01*
X104223381Y-113474476D01*
X104223381Y-112569714D02*
X104223381Y-112760191D01*
X104271000Y-112855429D01*
X104318619Y-112903048D01*
X104461476Y-112998286D01*
X104651952Y-113045905D01*
X105032905Y-113045905D01*
X105128143Y-112998286D01*
X105175762Y-112950667D01*
X105223381Y-112855429D01*
X105223381Y-112664952D01*
X105175762Y-112569714D01*
X105128143Y-112522095D01*
X105032905Y-112474476D01*
X104794810Y-112474476D01*
X104699571Y-112522095D01*
X104651952Y-112569714D01*
X104604333Y-112664952D01*
X104604333Y-112855429D01*
X104651952Y-112950667D01*
X104699571Y-112998286D01*
X104794810Y-113045905D01*
M02*
