M48
;DRILL file {KiCad 4.0.7} date 01/29/18 09:37:20
;FORMAT={-:-/ absolute / inch / decimal}
FMAT,2
INCH,TZ
T1C0.031
T2C0.032
T3C0.035
T4C0.039
T5C0.039
T6C0.040
T7C0.040
T8C0.138
%
G90
G05
M72
T1
X3.7675Y-3.5175
X3.7675Y-3.6175
X3.7675Y-3.7175
X3.7675Y-3.8175
X3.85Y-3.4
X3.9031Y-3.95
X3.9031Y-4.15
X4.0675Y-3.5175
X4.0675Y-3.6175
X4.0675Y-3.7175
X4.0675Y-3.8175
X4.1Y-3.95
X4.1Y-4.15
X4.15Y-3.4
X4.19Y-4.73
X4.255Y-3.96
X4.255Y-4.1521
X4.265Y-4.36
X4.265Y-4.46
X4.265Y-4.56
X4.295Y-3.5916
X4.295Y-3.69
X4.415Y-3.565
X4.415Y-3.695
X4.415Y-3.795
X4.415Y-3.895
X4.415Y-3.995
X4.415Y-4.095
X4.415Y-4.195
X4.415Y-4.295
X4.415Y-4.395
X4.415Y-4.495
X4.415Y-4.595
X4.49Y-4.73
X4.715Y-3.565
X4.715Y-3.695
X4.715Y-3.795
X4.715Y-3.895
X4.715Y-3.995
X4.715Y-4.095
X4.715Y-4.195
X4.715Y-4.295
X4.715Y-4.395
X4.715Y-4.495
X4.715Y-4.595
X4.83Y-3.5616
X4.83Y-3.66
X4.85Y-3.82
X4.85Y-3.92
X4.85Y-4.02
X4.85Y-4.12
X4.85Y-4.22
X4.85Y-4.32
X4.85Y-4.42
X4.85Y-4.52
X4.96Y-3.4
X4.96Y-3.7
X5.07Y-3.17
X5.07Y-3.305
X5.07Y-3.405
X5.07Y-3.505
X5.07Y-3.605
X5.15Y-3.82
X5.15Y-3.92
X5.15Y-4.02
X5.15Y-4.12
X5.15Y-4.22
X5.15Y-4.32
X5.15Y-4.42
X5.15Y-4.52
X5.26Y-3.7116
X5.26Y-3.81
X5.26Y-3.89
X5.26Y-4.19
X5.37Y-3.17
X5.37Y-3.305
X5.37Y-3.405
X5.37Y-3.505
X5.37Y-3.605
X5.39Y-3.89
X5.39Y-4.19
X5.5013Y-3.5
X5.58Y-3.5
X5.85Y-3.9916
X5.85Y-4.09
X5.85Y-4.1816
X5.85Y-4.28
X6.0016Y-3.98
X6.1Y-3.98
T2
X5.72Y-3.4
X5.72Y-3.7
T3
X4.05Y-4.34
X4.05Y-4.4384
X4.05Y-4.5369
X4.05Y-4.6353
T4
X5.89Y-3.86
X5.99Y-3.86
X6.09Y-3.86
T5
X5.53Y-4.07
X5.53Y-4.1704
X5.53Y-4.2708
X5.53Y-4.4696
X5.53Y-4.57
T6
X4.44Y-3.245
X4.44Y-3.345
X4.54Y-3.245
X4.54Y-3.345
X4.64Y-3.245
X4.64Y-3.345
T7
X3.9Y-3.2
X4.Y-3.2
X4.1Y-3.2
X5.5Y-3.25
X5.6Y-3.25
X5.7Y-3.25
T8
X5.99Y-3.2041
T0
M30
